<?xml version="1.0" encoding="UTF-8" standalone="no"?>
<!-- Created with Inkscape (http://www.inkscape.org/) -->

<svg
   xmlns:dc="http://purl.org/dc/elements/1.1/"
   xmlns:cc="http://creativecommons.org/ns#"
   xmlns:rdf="http://www.w3.org/1999/02/22-rdf-syntax-ns#"
   xmlns:svg="http://www.w3.org/2000/svg"
   xmlns="http://www.w3.org/2000/svg"
   xmlns:xlink="http://www.w3.org/1999/xlink"
   xmlns:sodipodi="http://sodipodi.sourceforge.net/DTD/sodipodi-0.dtd"
   xmlns:inkscape="http://www.inkscape.org/namespaces/inkscape"
   width="320"
   height="320"
   id="svg2"
   version="1.1"
   inkscape:version="0.47 r22583"
   sodipodi:docname="icon.svg"
   inkscape:export-filename="/home/caiosba/Trabalhos/Meedan/slack-chrome-extension-drawing/src/icon48.png"
   inkscape:export-xdpi="13.5"
   inkscape:export-ydpi="13.5">
  <defs
     id="defs4">
    <inkscape:perspective
       sodipodi:type="inkscape:persp3d"
       inkscape:vp_x="0 : 526.18109 : 1"
       inkscape:vp_y="0 : 1000 : 0"
       inkscape:vp_z="744.09448 : 526.18109 : 1"
       inkscape:persp3d-origin="372.04724 : 350.78739 : 1"
       id="perspective10" />
    <inkscape:perspective
       id="perspective2902"
       inkscape:persp3d-origin="0.5 : 0.33333333 : 1"
       inkscape:vp_z="1 : 0.5 : 1"
       inkscape:vp_y="0 : 1000 : 0"
       inkscape:vp_x="0 : 0.5 : 1"
       sodipodi:type="inkscape:persp3d" />
    <linearGradient
       inkscape:collect="always"
       xlink:href="#linearGradient2526"
       id="linearGradient2582"
       gradientUnits="userSpaceOnUse"
       gradientTransform="translate(0,0.785718)"
       x1="13.357142"
       y1="14.428571"
       x2="42.214283"
       y2="28.428572" />
    <linearGradient
       inkscape:collect="always"
       xlink:href="#linearGradient2563"
       id="linearGradient2569"
       x1="6.7857146"
       y1="30.785713"
       x2="42.214283"
       y2="30.785713"
       gradientUnits="userSpaceOnUse"
       gradientTransform="translate(0,0.785718)" />
    <radialGradient
       inkscape:collect="always"
       xlink:href="#linearGradient2551"
       id="radialGradient2557"
       cx="26"
       cy="29"
       fx="26"
       fy="29"
       r="18.428572"
       gradientTransform="matrix(1,0,0,0.751938,0,7.193799)"
       gradientUnits="userSpaceOnUse" />
    <linearGradient
       inkscape:collect="always"
       xlink:href="#linearGradient2526"
       id="linearGradient2532"
       x1="13.357142"
       y1="14.428571"
       x2="42.214283"
       y2="28.428572"
       gradientUnits="userSpaceOnUse"
       gradientTransform="translate(0,0.785718)" />
    <linearGradient
       id="linearGradient2526">
      <stop
         style="stop-color:#e7ebeb;stop-opacity:1.0000000;"
         offset="0.0000000"
         id="stop2528" />
      <stop
         id="stop2534"
         offset="0.50000000"
         style="stop-color:#e6ebeb;stop-opacity:1.0000000;" />
      <stop
         style="stop-color:#ffffff;stop-opacity:1.0000000;"
         offset="1.0000000"
         id="stop2530" />
    </linearGradient>
    <linearGradient
       inkscape:collect="always"
       id="linearGradient2551">
      <stop
         style="stop-color:#000000;stop-opacity:1;"
         offset="0"
         id="stop2553" />
      <stop
         style="stop-color:#000000;stop-opacity:0;"
         offset="1"
         id="stop2555" />
    </linearGradient>
    <linearGradient
       id="linearGradient2563">
      <stop
         style="stop-color:#e2e2e2;stop-opacity:1;"
         offset="0"
         id="stop2565" />
      <stop
         style="stop-color:#9f9f9f;stop-opacity:1.0000000;"
         offset="1.0000000"
         id="stop2567" />
    </linearGradient>
    <linearGradient
       y2="609.50507"
       x2="302.85715"
       y1="366.64789"
       x1="302.85715"
       gradientTransform="matrix(2.774389,0,0,1.969706,-1892.179,-872.8854)"
       gradientUnits="userSpaceOnUse"
       id="linearGradient6715"
       xlink:href="#linearGradient5048"
       inkscape:collect="always" />
    <linearGradient
       id="linearGradient5048">
      <stop
         id="stop5050"
         offset="0"
         style="stop-color:black;stop-opacity:0;" />
      <stop
         style="stop-color:black;stop-opacity:1;"
         offset="0.5"
         id="stop5056" />
      <stop
         id="stop5052"
         offset="1"
         style="stop-color:black;stop-opacity:0;" />
    </linearGradient>
    <radialGradient
       r="117.14286"
       fy="486.64789"
       fx="605.71429"
       cy="486.64789"
       cx="605.71429"
       gradientTransform="matrix(2.774389,0,0,1.969706,-1891.633,-872.8854)"
       gradientUnits="userSpaceOnUse"
       id="radialGradient6717"
       xlink:href="#linearGradient5060"
       inkscape:collect="always" />
    <linearGradient
       id="linearGradient5060"
       inkscape:collect="always">
      <stop
         id="stop5062"
         offset="0"
         style="stop-color:black;stop-opacity:1;" />
      <stop
         id="stop5064"
         offset="1"
         style="stop-color:black;stop-opacity:0;" />
    </linearGradient>
    <radialGradient
       r="117.14286"
       fy="486.64789"
       fx="605.71429"
       cy="486.64789"
       cx="605.71429"
       gradientTransform="matrix(-2.774389,0,0,1.969706,112.7623,-872.8854)"
       gradientUnits="userSpaceOnUse"
       id="radialGradient6719"
       xlink:href="#linearGradient5060"
       inkscape:collect="always" />
    <inkscape:perspective
       id="perspective48"
       inkscape:persp3d-origin="24 : 16 : 1"
       inkscape:vp_z="48 : 24 : 1"
       inkscape:vp_y="0 : 1000 : 0"
       inkscape:vp_x="0 : 24 : 1"
       sodipodi:type="inkscape:persp3d" />
    <linearGradient
       inkscape:collect="always"
       xlink:href="#linearGradient2563"
       id="linearGradient4369"
       gradientUnits="userSpaceOnUse"
       gradientTransform="matrix(4.1688494,0,0,4.1688494,449.30199,447.36115)"
       x1="6.7857146"
       y1="30.785713"
       x2="42.214283"
       y2="30.785713" />
    <linearGradient
       inkscape:collect="always"
       xlink:href="#linearGradient2526"
       id="linearGradient4379"
       gradientUnits="userSpaceOnUse"
       gradientTransform="translate(0,0.785718)"
       x1="13.357142"
       y1="14.428571"
       x2="42.214283"
       y2="28.428572" />
    <linearGradient
       inkscape:collect="always"
       xlink:href="#linearGradient2526"
       id="linearGradient4390"
       gradientUnits="userSpaceOnUse"
       gradientTransform="translate(0,0.785718)"
       x1="13.357142"
       y1="14.428571"
       x2="42.214283"
       y2="28.428572" />
  </defs>
  <sodipodi:namedview
     id="base"
     pagecolor="#ffffff"
     bordercolor="#666666"
     borderopacity="1.0"
     inkscape:pageopacity="0.0"
     inkscape:pageshadow="2"
     inkscape:zoom="0.984375"
     inkscape:cx="160"
     inkscape:cy="160"
     inkscape:document-units="px"
     inkscape:current-layer="layer1"
     showgrid="false"
     inkscape:window-width="1024"
     inkscape:window-height="551"
     inkscape:window-x="0"
     inkscape:window-y="0"
     inkscape:window-maximized="1" />
  <metadata
     id="metadata7">
    <rdf:RDF>
      <cc:Work
         rdf:about="">
        <dc:format>image/svg+xml</dc:format>
        <dc:type
           rdf:resource="http://purl.org/dc/dcmitype/StillImage" />
        <dc:title></dc:title>
      </cc:Work>
    </rdf:RDF>
  </metadata>
  <g
     inkscape:label="Camada 1"
     inkscape:groupmode="layer"
     id="layer1"
     transform="translate(-72.910749,-82.795981)">
    <g
       id="g4381"
       transform="translate(3.0793651,-8.1269841)">
      <g
         id="g2578"
         transform="matrix(7.5914393,-1.4713522,0.97108356,11.502286,-7.1452752,28.340166)">
        <path
           sodipodi:nodetypes="cczczcc"
           id="path2524"
           d="M 10.891973,11.500004 6.5714281,33.21429 c 0,0 26.2857149,1e-6 26.2857149,1e-6 12.584832,0 15.228163,-4.000001 15.228163,-4.000001 0,0 -3.357142,-1.178571 -4.785713,-6.142857 0,0 -3.060953,-11.571429 -3.060953,-11.571429 l -29.346667,0 z"
           style="fill:url(#linearGradient4390);fill-opacity:1;fill-rule:evenodd;stroke:#696969;stroke-width:0.44252467px;stroke-linecap:butt;stroke-linejoin:miter;stroke-opacity:1" />
        <path
           style="fill:none;stroke:#ffffff;stroke-width:0.44252443px;stroke-linecap:butt;stroke-linejoin:miter;stroke-opacity:1"
           d="M 11.803734,12.474609 7.8122567,32.239668 c 0,0 17.1442613,10e-7 24.4261253,10e-7 11.226639,0 14.110429,-2.850865 14.110429,-2.850865 0,0 -2.99306,-1.862842 -4.293392,-6.381499 0,0 -2.738563,-10.461267 -2.738563,-10.461267 l -27.513122,-0.07143 z"
           id="path2571"
           sodipodi:nodetypes="cccczcc" />
      </g>
      <path
         d="m 232.90241,136.40818 c -2.49558,4.73501 -3.91747,9.89397 -5.44533,14.98981 -1.17374,3.18905 -2.00606,6.45516 -2.35026,9.83437 -0.61467,0.86724 0.31333,3.59005 -0.13693,4.41573 -0.0478,0.0876 -0.0767,-0.18436 -0.11498,-0.27655 0.27975,-0.65025 1.86346,3.35113 0.82505,0.40838 -37.97853,20.6588 -24.86199,16.17886 -19.34804,9.81844 3.66867,-4.23186 7.00434,-8.78649 10.56626,-13.11158 3.7269,-4.75779 7.96216,-9.04796 12.22739,-13.31161 0.17001,-0.82936 1.83037,-1.2197 2.21365,-1.85655 0.0682,-0.11331 -0.17147,-0.34279 -0.0494,-0.39366 23.33494,-9.72391 26.98585,-16.06316 22.41155,-8.46865 -0.0787,0.20546 -0.0462,0.5055 -0.23623,0.61638 -7.25272,4.23135 -14.37555,8.73962 -21.96353,12.33529 -7.31277,3.46527 14.10092,-7.94378 21.13585,-11.94308 0.1727,-0.0982 -0.39944,0.10436 -0.54633,0.23811 -0.33107,0.30144 -0.61678,0.65706 -0.85394,1.03684 -0.41708,0.66787 -0.73284,1.3939 -1.09926,2.09086 -3.58144,5.86302 -5.55898,12.3898 -7.36092,18.95826 -0.81739,-0.007 -1.66417,9.48447 -1.06406,6.41564 1.0225,-1.03663 2.34987,-1.4827 3.73117,-1.7489 1.0003,-0.0223 0.58736,0.16669 1.25532,-0.52943 -6.84323,3.90566 -13.67642,7.82897 -20.52969,11.71699 -0.267,0.15147 0.51698,-0.33142 0.76919,-0.50642 0.9333,-0.64756 0.61978,-0.40405 1.39589,-1.34204 4.44423,-6.93836 31.21027,-19.24013 22.96399,-10.41368 -3.9243,4.90174 -7.10996,10.25558 -9.73138,15.94631 -1.72483,3.92436 -2.95405,7.9549 -2.53037,12.25632 0.0553,0.31371 0.0798,0.63449 0.16604,0.94115 0.0396,0.14074 0.0701,0.33632 0.20747,0.38643 0.4809,0.17548 -0.25228,-0.51773 0.31854,-1.23128 0.2224,-0.27802 0.66381,-0.27067 0.95998,-0.46825 0.34463,-0.22991 0.63168,-0.53619 0.94753,-0.80429 -36.94399,22.34248 -20.69215,12.23128 -12.64557,6.63062 8.97281,-6.78853 18.30499,-14.18888 29.22169,-17.15241 3.71949,-1.12774 4.02991,3.04021 3.55361,5.67548 -1.76822,4.91286 -3.97753,9.59474 -5.07941,14.72498 -0.67117,4.08632 -0.45769,8.21433 1.48502,11.91095 1.08635,1.73928 1.74443,0.90091 2.54972,-0.41878 -51.88435,25.46002 -23.60308,15.79735 -18.70345,10.41696 1.38276,-1.51844 2.45816,-3.40625 3.64437,-5.07376 0.44667,-0.61706 0.89254,-1.23471 1.34001,-1.8512 0.15093,-0.20794 1.50331,-2.03748 1.79436,-2.51277 0.1123,-0.18339 0.0819,-0.49686 0.27968,-0.58137 23.25465,-9.93857 26.03415,-16.27339 21.63537,-7.57514 -2.55553,4.27863 -4.95201,8.63348 -7.08414,13.13879 -2.37441,4.53769 -3.11491,9.52392 -3.53332,14.5569 -0.008,0.60748 0.1997,7.71904 1.2344,7.1121 0.3354,-0.3521 0.16859,-0.91276 0.41865,-1.289 0.15014,-0.22589 0.43652,-0.32205 0.65478,-0.48307 -6.75937,3.8966 -13.48122,7.85903 -20.27811,11.68981 -0.58943,0.3322 1.11747,-0.76539 1.64556,-1.18836 0.72659,-0.58196 1.41006,-1.21579 2.11509,-1.82369 3.48782,-2.99073 6.5208,-6.44116 9.73956,-9.70502 6.5589,-6.55359 2.05924,-2.17189 22.38551,-13.45497 0.64706,-0.35918 2.3244,2.49897 1.96774,3.30235 -1.03124,1.9122 -2.27875,3.74382 -3.38528,5.63992 -1.43681,2.10813 -2.39768,4.38185 -2.91655,6.86876 -0.22813,2.30099 -0.59713,4.70395 -0.24403,7.01154 -0.0223,1.31307 0.61387,-1.05305 0.44436,-0.96484 -34.82677,18.12253 -24.30428,14.91974 -17.0542,8.87264 4.26124,-4.00409 7.81236,-8.68265 11.5948,-13.12778 0.11078,-0.14516 0.16456,-0.36341 0.33234,-0.43549 26.6033,-11.429 27.0383,-14.37917 18.3344,-4.36566 -2.98711,3.30488 -4.99626,7.14328 -6.62119,11.24864 -1.95407,4.85658 -2.84779,10.01483 -3.41691,15.19086 -0.69332,0.56487 0.76751,4.18699 0.73794,1.93044 5.58567,-6.47199 0.23807,-0.17973 -20.42916,11.40767 -0.26203,0.14691 0.46291,-0.38319 0.70088,-0.56653 1.07077,-0.82489 2.11425,-1.63616 3.12705,-2.53435 1.78889,-2.12515 3.9021,-4.07283 5.38956,-6.43557 7.22795,-4.19415 14.10441,-9.06303 21.68385,-12.58246 0.69631,-0.32332 0.9136,1.24345 1.25563,1.93077 0.70938,1.42554 -0.59507,2.66983 -1.27711,3.78736 -1.22288,2.01805 -2.7486,3.81452 -3.89918,5.87531 -1.00833,2.22191 -0.90538,4.5807 -0.65432,6.94548 0.70277,3.86574 1.46887,7.90094 3.50156,11.31986 0.3491,0.6462 0.94892,1.11761 1.61276,0.50336 0.40184,-0.37183 1.54934,-1.5128 1.07239,-1.244 -6.91159,3.89525 -13.75984,7.90185 -20.63976,11.85277 1.31461,-0.64766 2.31923,-1.72961 3.33189,-2.76048 4.86482,-6.43014 30.31056,-18.64646 23.00079,-8.94142 -2.2536,2.52632 -4.58628,4.97941 -6.8087,7.53501 -0.97137,0.17435 -1.30803,3.06471 -1.76933,3.46405 -0.0683,0.0592 -0.10849,-0.14459 -0.16273,-0.21688 -0.94938,-2.42647 0.36913,-1.36659 1.60735,-0.84058 5.24989,-8.98329 -28.3874,17.8129 -18.8345,9.72712 0.16803,-0.0739 0.36853,-0.0978 0.50408,-0.22158 0.3592,-0.32796 0.56458,-0.79617 0.89902,-1.14934 5.75144,-6.07364 21.85797,-9.73286 23.38736,-10.38658 -0.0269,0.42372 0.0125,0.85694 -0.0807,1.27118 -0.36739,1.63443 -1.38631,3.2287 -1.90468,4.82356 -0.76243,2.34575 -0.80172,2.96703 -1.29125,5.45917 -0.79686,4.88032 -1.05073,9.82352 -1.04605,14.76176 -0.27485,-0.58883 0.39343,2.22802 0.49075,1.61386 0.0424,-0.26779 -0.11705,-0.53579 -0.10459,-0.80663 0.009,-0.18877 0.1111,-0.36125 0.16665,-0.54187 -6.95285,3.8843 -13.9057,7.76859 -20.85854,11.65289 2.34659,-1.29563 3.87203,-3.63706 5.28673,-5.84401 6.53275,-9.45597 1.38635,-2.81648 24.79057,-12.93291 -0.17298,1.93255 -0.75207,3.80417 -1.05253,5.72258 -0.27389,1.71341 0.0913,0.0952 0.41074,-0.46237 11.14345,-5.73666 -27.13001,17.78376 -17.0976,9.49626 1.01454,-1.43415 2.48074,-2.39574 3.54461,-3.76759 0.16706,-0.21937 0.33412,-0.43874 0.50118,-0.6581 0,0 22.82765,-9.8057 22.82765,-9.8057 l 0,0 c -0.17004,0.21933 -0.34009,0.43866 -0.51013,0.65799 -0.48272,0.63824 -0.86087,1.56001 -1.40627,2.12795 -0.41435,0.43147 -1.06038,0.58787 -1.4817,1.01254 -0.25066,0.25265 -0.41659,0.57715 -0.62488,0.86572 -0.59778,0.82536 -0.6347,1.06113 -1.49375,1.58211 -11.04039,6.69545 -14.86404,10.9369 -23.93713,13.79138 -1.7674,-0.32788 -3.34118,-2.02672 -3.02879,-3.89205 0.25527,-1.79878 0.52576,-3.64687 1.13377,-5.35574 48.96402,-23.2909 24.51175,-15.38398 20.11182,-8.1906 -1.74705,2.08639 -2.90754,4.66041 -4.79497,6.65911 -3.72584,2.09611 -22.67897,21.21706 -24.89428,8.20365 0.33259,-5.08139 0.59066,-10.1755 1.24604,-15.2278 0.38107,-2.68268 0.90832,-8.84807 3.00259,-10.76957 7.52594,-3.67956 15.05189,-7.35912 22.57784,-11.03868 -0.85731,0.57286 -1.91786,1.02559 -2.16054,2.08409 -7.51932,5.60113 -15.70361,16.7362 -24.81532,13.72141 -0.48617,0.0189 -0.53238,0.36367 -0.86173,0.44599 -1.03051,0.25757 -1.56185,-1.12186 -2.05944,-1.74371 -0.77245,-1.80959 0.15613,-3.8479 1.09036,-5.49639 1.83774,-2.8834 4.52986,-5.22867 6.90038,-7.66236 5.56426,-6.64394 32.23097,-15.09735 24.56542,-11.7841 -0.21858,0.0945 -0.49348,0.0341 -0.69658,0.15848 -0.0435,0.0266 -1.28637,1.32066 -1.31974,1.35528 -1.04752,1.08792 -2.05252,2.21797 -3.1109,3.29152 -7.30946,4.22501 -14.57317,8.53017 -21.92837,12.67502 -1.81879,1.02494 -3.90967,-1.11215 -4.69379,-2.46836 -1.97462,-3.78269 -2.78901,-8.05922 -3.84441,-12.16222 -0.46985,-2.72686 -0.87767,-5.2996 -0.1083,-8.02832 0.73791,-2.42046 2.29346,-4.27267 3.76953,-6.2838 0.2151,-0.32796 0.95788,-2.20356 1.53479,-2.12355 0.83467,0.11576 0.71064,2.48208 1.59785,1.95896 6.97596,-4.07751 13.95193,-8.15502 20.9279,-12.23253 -2.25676,0.81635 -3.89913,4.63009 -5.70555,6.21215 -5.60555,7.08995 -22.45671,16.30367 -26.20503,16.05835 -2.14023,-1.51968 -2.87945,-3.24549 -2.7231,-5.92171 0.80607,-5.28336 1.53544,-10.63874 3.28881,-15.70661 1.40688,-4.36989 3.27542,-8.44761 6.20539,-12.02738 8.08555,-9.7912 7.34343,-6.11829 27.20072,-14.80106 0.23065,-0.10085 -0.37033,0.34109 -0.55549,0.51163 -4.20493,4.22166 -7.82785,8.91055 -11.71261,13.41566 -7.03892,6.89164 -21.89792,23.07069 -27.87533,13.10574 -0.69775,-2.53577 -0.0802,-5.29269 -0.10859,-7.89737 0.29597,-2.74278 0.987,-5.45659 2.58319,-7.75373 0.83987,-1.39333 1.49083,-3.00113 2.45575,-4.30667 0.13647,-0.18464 0.41403,-0.24446 0.52571,-0.44507 0.12645,-0.22714 0.0989,-0.51044 0.14833,-0.76566 0.61942,-0.73718 0.21166,-0.41954 1.27182,1.34761 0.14117,0.23531 -0.0998,0.94787 0.13832,0.81151 19.64289,-11.24824 26.7471,-17.55968 19.88042,-11.54193 -3.48058,3.16918 -6.56417,6.70438 -10.02948,9.89121 -8.24063,7.96743 -8.86665,6.57867 -25.37488,16.12821 -1.09343,0.63252 -1.93579,0.0863 -2.84902,-0.59813 -2.08624,-2.61732 -1.69422,-6.2501 -1.9568,-9.42089 0.40758,-5.23337 0.8237,-10.57563 3.16809,-15.36558 2.12302,-4.44365 4.20392,-8.90471 6.83215,-13.08598 4.48841,-8.9479 0.23707,-1.16591 23.81554,-12.12793 0.19693,-0.0916 -0.42675,0.14249 -0.58044,0.29593 -1.31073,1.30859 -2.11554,3.15629 -3.4077,4.48459 -9.40362,12.95015 -0.10592,5.51397 -26.6753,19.97983 -2.14832,0.19252 -3.85445,-1.04385 -4.75644,-2.98387 -1.88469,-4.27658 -2.41578,-8.82664 -1.81363,-13.47431 0.78284,-5.12131 2.66956,-9.89823 4.639,-14.67271 0.045,-0.13972 0.53789,-1.72504 0.6775,-1.97983 0.19864,-0.36254 0.33169,0.11353 0.23232,0.20604 -0.43062,0.40089 -1.26155,0.18137 -1.64913,0.62902 -7.40702,3.53381 -18.25412,10.32362 17.26905,-10.25369 0.99045,-0.57374 -1.86245,1.3331 -2.75577,2.04875 -0.46698,0.3741 -0.95039,0.72721 -1.42559,1.09081 -9.16011,6.96652 -19.30363,12.46897 -29.41788,17.96508 -3.24383,1.16863 -4.70006,0.67173 -5.27406,-2.96336 -0.40671,-4.76048 0.40429,-9.21383 2.40159,-13.59126 2.52109,-5.75217 5.48903,-11.1985 9.16544,-16.30131 5.01245,-8.3616 30.68162,-19.87054 22.51387,-8.87021 -0.74129,0.68922 -1.07679,1.81304 -1.94897,2.32876 -40.27277,23.81336 -13.10706,10.0492 -23.55502,13.07766 -1.44143,0.55733 -2.75461,1.38524 -4.3751,0.87665 -1.90026,-1.51197 -2.23514,-2.61744 -1.76908,-4.98793 0.60977,-3.1014 0.38885,-2.05579 1.39809,-5.36963 1.89027,-6.55533 3.45032,-13.27365 6.85451,-19.26628 5.8208,-11.49858 -6.9168,-2.97682 23.44189,-16.67785 7.20949,-3.25368 -29.65956,11.91876 -20.41739,12.09126 6.28701,-6.56063 -0.38788,0.29195 23.77389,-10.41624 0.11959,-0.053 -0.20986,-0.29527 -0.32082,-0.226 -0.17353,0.10835 -1.98371,2.46729 -2.41558,2.19542 -4.7203,4.00544 -8.99746,8.55149 -12.99018,13.27819 -2.79883,3.34245 -5.58847,6.6853 -8.16387,10.2059 -0.62927,0.86022 -1.23423,1.73812 -1.83373,2.61934 -0.38041,0.55918 -0.53019,1.34585 -1.10559,1.70125 -7.2953,4.50603 -14.88586,8.51553 -22.32878,12.7733 -0.79036,-0.83269 -1.42574,-1.70123 -2.18933,-2.54057 -0.9534,-1.73037 -0.27706,-3.75263 -0.27824,-5.68192 0.37332,-3.56565 0.8888,-7.10373 2.32307,-10.42843 1.87806,-4.98798 3.07213,-10.23509 5.07135,-15.19159 0,0 22.51704,-10.18742 22.51704,-10.18742 z"
         id="path2910"
         style="fill:#e9a71f;fill-opacity:1;fill-rule:nonzero;stroke:none" />
      <path
         d="m 147.99004,165.02024 c -3.04764,4.09983 -5.74427,8.43485 -8.50133,12.72956 -2.5274,4.14262 -5.10823,8.28216 -7.23412,12.651 -0.2828,1.41333 -0.29007,0.0134 -0.19043,-0.085 0.0128,-0.0127 1.70727,-0.48904 1.93669,-0.60135 5.77735,-1.97756 13.75259,-7.39984 -11.66262,7.02272 -0.37802,0.21452 0.74857,-0.44218 1.117,-0.67281 0.4122,-0.25803 0.81639,-0.52866 1.22459,-0.79299 9.52777,-5.97095 32.60486,-18.61383 3.92138,-2.35625 -0.56549,0.32051 1.10486,-0.68535 1.64789,-1.04259 1.2375,-0.81408 2.40526,-1.65198 3.6158,-2.50532 2.96776,-2.07279 5.84337,-4.27743 8.69767,-6.50338 1.29371,-1.05127 2.72397,-1.87846 4.01494,-2.9207 1.48804,-1.06852 2.91573,-2.22096 4.36511,-3.34445 5.59121,-4.76642 10.0685,-6.74273 18.04033,-10.92323 0.20585,-0.10795 0.44128,0.21481 0.56116,0.41394 0.29969,0.49782 0.43964,1.07577 0.65946,1.61366 -0.15074,0.33366 -0.249,0.69643 -0.45223,1.00099 -1.04496,1.56594 -2.69733,2.82315 -4.04938,4.09345 -1.56594,1.47128 -1.57208,1.508 -3.00629,2.97917 -1.99695,2.08689 -3.72673,4.32172 -5.05458,6.884 -1.35435,2.72327 -2.66488,5.46825 -3.98815,8.20678 -0.92651,2.14954 -2.30145,4.05912 -3.23535,6.20069 -0.3018,0.8561 -0.93253,1.9736 -0.25624,2.80729 0.69328,0.68758 1.36969,1.25161 2.29996,1.54482 0.50329,0.22348 0.54022,-0.24678 0.88858,-0.54956 -4.86192,2.74905 -9.68424,5.56935 -14.58575,8.24716 -0.2935,0.16034 0.51921,-0.42704 0.7367,-0.6811 0.35763,-0.41777 0.65436,-0.88406 0.98153,-1.32608 2.3854,-3.81563 4.74887,-7.61238 7.68226,-11.03584 5.87632,-5.48605 12.98625,-10.52357 20.83447,-12.44575 0.78859,-0.26487 1.77568,0.47886 2.25129,-0.28664 1.22275,-0.66964 2.40557,-0.61714 3.66183,-0.13174 1.37377,1.14921 1.66513,2.82591 1.34504,4.50613 -0.22448,1.4286 -1.06203,2.62194 -1.71685,3.89192 -0.82998,1.73941 -1.71602,3.4443 -2.70956,5.09459 -1.94601,2.3579 -2.9041,5.28115 -3.8925,8.12516 -1.42946,4.75606 -2.63874,9.57276 -3.63981,14.43614 -0.26703,1.32876 -0.79559,2.57172 -1.28891,3.82474 -5.15122,3.00964 -10.26963,6.07616 -15.45367,9.02891 -1.0853,0.61817 -1.9222,-1.87549 -2.12784,-2.42764 -0.36941,-6.29862 2.74995,-13.16215 5.47404,-18.70196 3.05803,-5.63193 6.98018,-10.69084 11.73975,-14.96891 5.99499,-4.7171 12.38204,-10.99028 20.15869,-11.25382 2.63126,1.44785 1.70315,4.73073 0.98889,6.9999 -2.08879,5.34185 -5.40861,10.06251 -8.03226,15.13991 -2.96187,6.05704 -5.02003,12.4869 -7.0071,18.91196 -1.15199,3.45063 -1.82892,7.01743 -2.59298,10.56265 -1.94482,6.72601 0.41832,1.63249 -16.30192,8.16887 -0.28313,0.11068 0.26871,-0.54697 0.43403,-0.80209 0.87407,-1.3488 1.15269,-1.54777 2.29875,-2.82946 3.71223,-4.29756 7.88446,-8.14099 12.11617,-11.91301 5.90255,-5.0929 15.69003,-13.33116 22.13075,-13.07555 2.03293,0.25174 3.16593,1.64847 3.62596,3.53987 -0.50773,3.99633 -3.28894,7.41352 -5.25755,10.83272 -2.12311,3.58467 -3.15913,7.62102 -4.11823,11.63511 -0.77556,6.53794 -15.60001,18.64024 -17.33707,9.47154 -0.15806,-2.60964 0.0274,-5.27239 0.5592,-7.83506 2.12374,-6.09497 15.97431,-10.76058 16.90123,-11.30141 -4.87812,2.81678 -9.74133,5.65955 -14.63438,8.45033 -0.17527,0.1 0.30126,-0.27282 0.47543,-0.37469 5.15369,-3.01433 10.3556,-5.94585 15.503,-8.97091 4.7974,-2.81937 -9.63006,5.57837 -14.45299,8.35384 -0.35587,0.20479 0.69387,-0.43935 1.04638,-0.64987 0.41487,-0.35519 1.59065,-1.76273 0.93248,-2.31784 -0.27335,0.62047 -0.90506,0.41065 -1.44081,0.58933 -0.98972,0.33007 -1.34926,0.68524 -2.46312,0.70131 -5.64133,1.97766 -14.28167,7.69743 12.3746,-7.34483 0.42651,-0.24068 -0.7254,0.66901 -1.00752,1.06932 -1.05283,2.41921 -0.90868,5.17736 -0.97451,7.76429 -0.0658,3.00762 0.041,6.01348 0.10551,9.01958 0.17419,1.78969 -0.50835,3.45456 -0.93501,5.15855 -0.86873,4.13806 -1.45347,8.34092 -1.97048,12.53711 -0.14652,3.99028 -1.12652,8.15116 -0.32239,12.12397 0.0455,0.0785 0.16681,0.32104 0.13656,0.23549 -2.25615,-6.38029 -5.22185,1.72078 -15.41435,7.34607 -0.13956,0.077 0.31006,-0.10545 0.42869,-0.21191 0.34523,-0.30981 0.58509,-0.97156 0.75724,-1.34304 1.88722,-3.83491 2.84899,-8.00868 3.54885,-12.19789 0.44358,-2.90144 0.36715,-5.84709 0.99763,-8.71943 0.68179,-6.44236 13.89092,-15.27185 16.38846,-8.35284 0.51417,1.42442 -0.26374,3.56332 -0.53933,4.93086 -0.45623,2.95752 -1.45714,5.91228 -1.52123,8.92282 0.0312,0.0617 0.0448,0.23411 0.0935,0.18509 0.0997,-0.10028 0.0626,-0.27855 0.12534,-0.40524 0.0987,-0.1992 0.23676,-0.37633 0.35513,-0.5645 -4.70878,2.62134 -9.3796,5.31208 -14.12635,7.86403 -0.51719,0.27805 0.97168,-0.6624 1.42506,-1.03556 0.67757,-0.55768 1.30911,-1.16906 1.96367,-1.75358 4.0552,-3.85235 7.99635,-7.81696 12.33014,-11.36305 6.04795,-4.25423 2.52334,-1.83428 17.11578,-9.83663 0.65977,-0.36181 1.53967,-0.22185 2.21705,-0.0265 0.7047,0.17479 0.9533,0.13388 1.19805,1.15856 0.35806,1.49903 -1.01893,2.47208 -1.89407,3.43595 -3.79497,3.77904 -7.50774,7.60155 -10.84909,11.7918 -2.88572,3.84133 -5.62031,7.77485 -8.00768,11.94333 -1.57803,2.29771 -2.03416,4.90898 -2.26647,7.62387 -0.24164,-0.37452 0.0617,5.4344 0.43084,4.24563 0.0243,-0.22333 -0.0383,-0.47485 0.073,-0.67 0.29283,-0.51339 1.93465,-1.35307 1.42148,-1.05985 -24.38722,13.93437 -16.63355,10.41838 -11.86076,6.41658 2.98438,-2.96027 5.65152,-6.218 8.46465,-9.33827 2.08873,-2.31192 4.36739,-4.42627 6.8621,-6.28978 0.96891,-0.81919 2.08793,-1.3998 3.04159,-2.23502 21.54811,-8.94234 17.85212,-9.79433 11.26004,-0.84474 -3.52112,5.15003 -4.9518,11.15052 -6.27808,17.13784 -1.31946,6.49388 -2.94675,12.92328 -4.48393,19.3692 -0.40519,2.18109 -1.15155,4.33012 -1.17016,6.56917 -0.003,0.34318 -0.1065,-0.67826 -0.17399,-1.01474 -28.1213,13.98769 -17.40074,10.42334 -12.65221,6.73498 1.86605,-1.44943 3.53639,-3.15064 5.22423,-4.79617 3.51815,-3.55624 7.38634,-6.73531 11.25439,-9.89727 2.12622,-1.73976 4.04417,-3.70624 5.99505,-5.63399 4.51172,-3.79299 14.63586,-14.69243 17.82426,-7.29266 0.72881,1.8051 -0.45657,3.43811 -1.34315,4.95135 -3.12363,4.47047 -6.42457,8.79989 -9.26671,13.45976 -1.78644,2.95956 -3.3279,5.98557 -4.11688,9.35927 -0.69429,2.79272 -1.20856,5.62025 -1.45919,8.48685 -0.0621,1.08553 -0.33175,2.23422 0.3511,3.17283 0.0363,0.0344 0.11865,0.1522 0.10901,0.10312 -1.27225,-6.47596 -13.68129,6.75499 -14.96942,7.40756 -0.42058,0.21306 0.57515,-0.74755 0.84788,-1.13213 2.85605,-4.02732 -0.86221,1.00014 2.75839,-3.83059 3.42586,-4.8573 7.20564,-9.39946 11.3572,-13.64742 4.85413,-4.46819 13.39501,-15.8615 18.94251,-10.78447 1.50748,2.27496 -0.7062,3.85159 -2.14555,5.44744 -1.2082,1.23325 -2.37647,2.48679 -3.03085,4.09587 -1.17528,2.61929 -1.25763,5.49565 -1.07841,8.31054 0.14645,1.75686 0.56553,3.47281 0.76112,5.22255 0.074,1.42425 -0.38665,2.70387 -1.1222,3.89644 -0.45352,0.31855 -0.89222,2.27896 -1.41279,1.79055 -0.98334,-1.95515 -1.47115,-1.45913 0.17998,-2.03135 0.51528,-0.17858 0.97727,-0.48439 1.46909,-0.72001 5.18211,-2.18359 14.56088,-8.05931 -12.67811,7.38836 -0.28757,0.16309 0.53765,-0.3849 0.80986,-0.5725 1.98452,-1.36767 -0.21376,0.19136 1.89113,-1.31502 2.33727,-1.89811 4.79112,-3.64188 7.19561,-5.45154 5.87786,-3.98553 3.77223,-2.59649 16.91116,-9.79373 0.96205,-0.52699 2.08563,0.0825 2.68506,0.74342 1.36682,1.85402 -0.26898,3.53422 -1.30366,5.07478 -0.99704,1.55371 -2.23804,2.92912 -3.15812,4.5313 -2.39173,6.01304 -12.41039,14.69164 -16.82581,9.48193 -0.6295,-1.06517 -0.79477,-2.35663 -1.12525,-3.5517 -0.49596,-3.0901 -1.11689,-6.15951 -1.69836,-9.23519 -0.93666,-5.20231 -2.57121,-10.23379 -4.50671,-15.14042 -1.59983,-3.94124 -3.34822,-7.8365 -5.36194,-11.58532 -1.35848,-2.2644 -2.10807,-4.80473 -3.22941,-7.17834 -0.47655,-1.26685 -1.31832,-2.32968 -1.96187,-3.51504 -0.54595,-1.49741 -0.47469,-3.11602 -0.76629,-4.67452 -0.51361,-1.91034 -0.67936,-3.87673 -0.83188,-5.84054 -0.0754,-1.3686 -0.14669,-2.73678 -0.14139,-4.1077 0.0149,-2.22749 -0.33057,-4.46801 -0.82257,-6.63744 -0.55603,-2.40538 -1.20613,-4.78505 -1.75722,-7.19134 -0.65386,-4.03868 -0.96022,-4.4789 -5.1107,-4.10579 -1.76672,0.39445 -3.46818,0.8708 -5.07999,1.70411 -0.4194,0.21683 -1.64128,0.93429 -1.23144,0.69987 14.3549,-8.21047 18.68893,-10.95662 13.61847,-7.7556 -0.96641,-0.25102 -0.16898,-1.12185 0.33,-1.38892 4.92523,-2.88121 11.81158,-6.28736 -11.40983,6.50601 -0.68349,0.37656 1.31058,-0.85094 1.92679,-1.32974 1.89169,-1.46982 2.23158,-1.96989 3.89112,-3.72986 2.42988,-3.07472 4.99646,-6.10503 6.91793,-9.53851 0.55045,-0.8343 -0.73482,0.29577 -1.18194,0.4639 -1.50611,0.25238 -2.73682,1.20594 -4.18077,1.62833 -0.91188,0.0335 -1.91579,0.4722 -2.83536,0.32247 -0.54106,-0.0881 -1.03727,-0.35596 -1.56229,-0.51367 -1.84244,-0.48448 -3.27147,-1.61215 -4.14989,-3.27999 -0.74821,-1.83416 -0.15462,-3.70793 0.60631,-5.42969 1.18758,-2.42219 2.87034,-4.49823 3.70934,-7.08768 0.008,-0.34757 0.11747,-0.70772 0.0245,-1.04272 -0.55355,-1.99412 -6.09267,-2.29736 -7.63156,-2.36376 -4.73566,-0.0987 -9.351,1.08559 -13.9511,2.04915 -2.26793,0.45454 -6.21818,1.19134 -7.40336,-1.63616 -0.29125,-0.69485 -0.29727,-1.47723 -0.4459,-2.21585 0.4238,-6.20759 3.06747,-11.94066 5.2896,-17.66525 1.36841,-3.873 2.69269,-7.76266 4.28053,-11.55262 3.28861,-5.79301 6.27985,-11.67146 8.6114,-17.91764 0.30298,-1.57812 2.71567,-6.46874 1.59151,-8.12746 -0.30747,-0.45368 -1.06875,-0.20033 -1.41593,-0.15604 -2.91415,0.83228 -5.70582,1.89327 -8.3871,3.30857 -1.8604,0.75435 -3.17859,2.19815 -4.70856,0.27866 -0.61538,-0.88804 -0.98671,-0.95248 -1.99256,-1.00095 -1.66081,0.0978 -3.16146,-0.32134 -4.72298,-0.82365 -1.13127,-0.20142 -1.56723,-1.05134 -2.06083,-1.98104 -0.38351,-0.73359 -0.86731,-0.98446 -1.39594,-1.58417 -0.98194,-0.41432 -1.70681,-1.27345 -2.20968,-2.19855 -0.23746,0.002 -0.43414,-3.64248 -0.14728,-2.46668 -0.004,0.14349 -0.0126,0.84484 -0.0578,0.92002 -0.0849,0.14138 -0.56858,0.33451 -0.42549,0.2525 25.58414,-14.66349 18.16335,-10.83918 13.27175,-7.53083 -9.78519,-45.27088 -10.34437,10.24819 -16.617,9.42002 -0.52209,-0.0689 -1.01556,-0.65348 -1.34729,-1.01282 -3.97954,-6.26357 8.97317,-10.60888 15.29201,-10.49953 0,0 -14.09294,10.58325 -14.09294,10.58325 l 0,0 c -6.1045,2.33802 19.2517,-4.56362 13.75245,-9.47984 0.26661,-0.51923 0.51939,-0.72816 1.10326,-0.98069 -4.80507,2.80362 -9.61014,5.60723 -14.41521,8.41085 5.34727,-3.9611 9.24296,-5.56766 16.78824,-9.89086 0.71252,-0.40825 1.20067,0.0195 1.75566,0.49198 0.70342,1.01353 0.60915,1.9076 0.44248,3.09714 0.23932,0.82391 1.47023,1.09352 1.96523,1.74614 0.5772,0.59856 1.21794,1.11428 1.57905,1.89617 0.43077,0.6767 0.44658,0.71536 1.30863,0.92144 1.51933,0.43501 3.07092,0.40486 4.62361,0.66138 1.118,0.33295 1.86062,0.93594 2.61278,1.80382 -0.23618,-0.79933 2.837,-1.42112 3.26157,-1.86576 2.8545,-1.29281 5.9699,-2.63745 9.15428,-2.39607 0.45012,0.20738 0.95476,0.32362 1.35036,0.62214 3.26067,2.46049 0.0936,7.69137 -0.69734,10.52591 -2.26896,6.10509 -4.84094,12.07738 -8.0231,17.76868 -1.80707,3.76482 -3.1999,7.71611 -4.6514,11.62732 -2.12508,5.45277 -4.75834,10.83581 -5.40321,16.72353 0.0301,0.42949 -0.0545,0.88299 0.0902,1.28847 0.55626,1.55835 5.17687,0.43813 6.18553,0.26093 4.67793,-0.93048 9.39968,-1.95474 14.20153,-1.63265 3.09363,0.3584 7.82078,0.85831 9.12495,4.32109 0.18627,0.49459 0.13817,1.04794 0.20725,1.57191 -0.60648,2.7251 -1.9037,4.99509 -3.48375,7.27114 -0.54727,1.26183 -1.50569,2.6462 -1.28121,4.05711 0.5569,1.27143 2.09247,1.6605 3.33889,1.96112 1.2898,0.19498 2.60167,-0.16109 3.80012,-0.6516 1.37719,-0.6633 2.82599,-1.12746 4.32459,-1.43164 1.84957,-0.2082 3.18656,1.05013 3.13323,2.93626 -1.61283,3.818 -4.93687,6.7104 -7.14508,10.16462 -6.30925,7.48544 -14.58552,12.5429 -24.00807,15.87192 -1.62088,0.15898 -2.71152,-1.08605 -2.64609,-2.67981 4.00329,-4.91455 15.03024,-10.57807 22.88446,-11.4348 4.48895,0.34995 5.83982,1.5863 6.46707,6.00059 0.55446,2.39779 1.22882,4.76224 1.76939,7.16357 0.5746,2.25987 0.82445,4.63302 1.15801,6.92862 0.006,1.35288 -0.0412,2.70626 0.0155,4.05867 0.0723,1.89318 0.2353,3.78389 0.69335,5.62834 0.31252,1.40175 0.51496,2.78239 0.67232,4.20217 0.57017,1.25208 1.45606,2.32955 1.88384,3.64621 1.01971,2.39753 1.71073,4.92796 3.04381,7.18788 1.86105,3.8962 3.68233,7.82192 5.17313,11.87712 1.95628,4.98388 3.68698,10.07012 4.8538,15.30236 0.61501,2.99567 1.28904,5.97884 1.89576,8.97433 0.0451,0.15911 1.08585,2.96177 0.56055,2.30936 -0.1073,-0.18952 -0.26893,-0.35732 -0.32188,-0.56857 -0.017,-0.0677 0.20081,-0.19025 0.14043,-0.15526 -4.94537,2.86559 -9.86929,5.76803 -14.80394,8.65204 0.51089,-0.0935 0.80369,-0.0119 0.96816,-0.61092 0.89317,-1.71996 1.99506,-3.23966 3.2118,-4.74704 0.53782,-0.77346 1.39512,-2.7205 2.36471,-2.63081 -5.8e-4,0.0636 0.0462,0.14898 -0.002,0.19078 -0.20081,0.17512 -0.51942,0.13228 -0.76088,0.24493 -0.21311,0.0994 -0.82435,0.45293 -0.62103,0.33477 13.91875,-8.08931 18.78674,-10.58504 12.84382,-7.51047 -2.46828,1.68229 -4.86952,3.48575 -7.17369,5.38839 -5.99219,4.85033 -12.81345,8.85419 -19.92229,11.80334 -2.00117,0.78424 0.453,-0.15241 -1.65177,0.56828 -1.60904,0.55095 -1.55241,0.54483 -2.3881,-1.42387 -0.0139,-0.16537 -0.1054,-0.34291 -0.0416,-0.4961 0.009,-0.0206 1.73535,-0.72089 1.43005,-1.56956 0.73589,-0.84543 1.40303,-1.63995 1.69051,-2.75582 -0.12986,-1.79631 -0.41636,-3.57669 -0.55093,-5.37299 -0.23659,-2.97478 -0.30981,-6.0594 0.54943,-8.94761 1.09563,-2.62423 -0.43896,1.15938 0.52684,-1.59802 0.43794,-1.25033 1.56731,-2.10355 2.31884,-3.15329 0.29125,-0.27037 0.60354,-0.51973 0.87377,-0.81112 0.57584,-0.62091 1.83064,-2.77112 2.69698,-1.42703 0.0378,0.14494 -0.16268,0.52196 -0.0323,0.44822 4.9072,-2.77525 9.76767,-5.63232 14.65151,-8.44848 -1.11503,0.4717 -0.61013,0.16808 -1.74254,1.16523 -0.44609,0.3928 -0.88433,0.79441 -1.32649,1.19162 -4.32266,4.07663 -8.275,8.4511 -11.53644,13.44062 -3.83143,5.12485 -13.07896,22.04043 -19.65154,13.06538 -0.75954,-1.35005 -1.01388,-2.74446 -0.70039,-4.28128 0.31697,-2.92586 0.70668,-5.84187 1.44756,-8.69684 0.69852,-3.62577 2.08336,-6.86424 4.07536,-9.98447 2.83828,-4.62808 6.04067,-8.97803 9.15538,-13.42161 0.61789,-0.93546 1.73712,-2.13987 1.67705,-3.36087 -0.0141,-0.0735 -0.0743,-0.29011 -0.0535,-0.21818 0.0286,0.0989 0.11091,0.19336 0.0927,0.29474 -0.0163,0.0908 -0.26293,0.25328 -0.18283,0.20759 4.6671,-2.66256 19.95896,-11.50931 13.95751,-8.06396 -2.34188,1.56139 -3.97575,4.0265 -6.23164,5.71587 -3.86062,3.23497 -7.96977,6.19929 -11.50076,9.81754 -7.62016,7.93489 -9.68997,8.87987 -22.41776,15.11824 -0.33918,-0.29334 -0.736,-0.53099 -1.01753,-0.88003 -1.24842,-1.54783 1.11247,-6.24526 1.22618,-7.89564 1.61807,-6.40025 3.28166,-12.79697 4.41885,-19.30583 1.42399,-6.09136 2.74764,-12.26189 5.97324,-17.71707 1.07648,-1.64101 21.53715,-31.72925 20.63375,-12.71113 -0.90748,1.0534 -1.89124,1.87123 -3.09828,2.5468 -2.5377,1.90086 -5.1614,3.68123 -7.24717,6.11479 -2.89253,2.99434 -5.46925,6.25889 -8.26088,9.34481 -4.71625,5.29407 -11.50021,7.54159 -17.75469,11.18551 -0.37681,0.21953 -1.3877,0.74988 -1.86865,0.68861 -0.33749,-0.043 -0.60152,-0.31809 -0.90228,-0.47713 -1.39837,-1.67947 -1.2243,-3.87192 -1.09083,-5.95004 0.17649,-2.89376 0.33784,-5.87973 1.95621,-8.38877 2.91858,-4.49086 -1.41542,2.2452 1.87709,-3.13677 1.94003,-3.17117 4.38256,-6.00869 6.39374,-9.13322 3.1893,-4.18452 6.68455,-8.07323 10.43148,-11.76711 0.6272,-0.67145 2.09727,-2.97992 2.83632,-1.01686 0.0588,0.15621 -0.59994,-0.23923 -0.50039,-0.0191 -0.54038,0.12684 -2.85975,1.3894 -1.53601,0.61264 13.36113,-7.84022 18.81506,-10.54647 12.51454,-7.37916 -4.56051,3.30421 -8.55712,7.2699 -12.50675,11.26394 -6.93655,6.70878 -2.55015,3.55689 -19.00795,12.02963 -0.95706,0.49272 -2.02629,-1.25753 -2.2183,-1.88798 -0.0793,-3.16208 1.2782,-6.23576 1.62416,-9.36013 0.20377,-1.08104 0.23487,-2.19323 0.48597,-3.26427 0.25536,-1.0892 0.60456,0.47945 0.80782,0.37323 16.8515,-8.80662 20.35217,-8.75085 14.19595,-8.69651 -1.11789,2.77125 -1.05809,5.74555 -1.47083,8.67254 -0.61915,4.24924 -1.59914,8.41643 -3.00776,12.4781 -0.22112,0.47436 -0.59356,2.16433 -0.73951,2.25129 -2.24646,1.33841 -14.06713,14.46042 -16.52118,7.17278 -0.60713,-4.22121 0.46558,-8.52504 0.51533,-12.75654 0.38713,-4.19864 0.91802,-8.38295 1.55826,-12.55014 0.13878,-0.71584 0.21365,-1.44327 0.35805,-2.158 0.12782,-0.63261 0.55641,-1.17035 0.66027,-1.80094 0.0442,-0.26814 0.0123,-0.54337 0.0184,-0.81505 0.0382,-3.04963 0.11759,-6.09888 0.0905,-9.14927 -0.009,-2.7531 -0.22092,-5.60963 0.4196,-8.30214 2.14009,-7.28142 11.38153,-10.19981 18.53666,-11.48607 1.71518,-0.55905 3.60942,-1.12768 5.06935,0.27398 0.95209,1.49719 0.82352,2.91 0.11831,4.50268 -0.37311,0.60449 -0.30032,0.6567 -0.90457,1.01255 -5.17499,3.04766 -10.51311,5.8276 -15.56125,9.08105 -4.71079,3.03603 9.70781,-5.60313 14.54811,-8.42809 0.16146,-0.0942 -0.3396,0.15641 -0.50941,0.23461 -5.14783,3.01562 -10.29567,6.03124 -15.44351,9.04686 29.78058,-17.4895 16.9161,-11.09185 12.7075,-7.09237 -1.22239,1.95422 -1.03148,4.83909 -0.98763,7.04574 0.5417,6.46371 0.22322,0.3623 -15.52965,8.73376 -0.12035,0.0639 0.29734,0.0357 0.40621,-0.0462 0.72867,-0.54869 0.92765,-1.82051 1.39305,-2.52292 1.15009,-4.1242 2.01351,-8.39781 4.1557,-12.15228 1.79941,-3.19267 3.83823,-6.27782 5.27626,-9.64841 0.28988,-1.23405 -1.1985,-1.38714 -2.08069,-1.18918 -5.72029,2.28797 -0.28206,0.15125 13.30005,-7.83692 0.35356,-0.20794 -0.75348,0.32923 -1.10739,0.53657 -1.64103,0.96145 -3.09939,2.23826 -4.53043,3.47426 -4.21062,3.67225 -8.48244,7.32365 -12.0261,11.66945 -0.72509,0.78651 -1.51722,1.515 -2.1836,2.35183 -0.15357,0.19286 -0.15179,0.53017 -0.37324,0.63853 -5.35308,2.61932 -10.82334,4.99204 -16.23501,7.48806 0.58303,-0.34153 0.30107,-0.0889 0.71287,-0.88429 1.37678,-3.45566 1.5766,-7.38643 3.09262,-10.8226 2.0636,-6.46226 4.05444,-12.97438 6.88072,-19.15543 2.46394,-5.01576 5.6336,-9.6491 7.8366,-14.78703 0.43993,-1.19631 1.57765,-4.53588 0.54808,-3.78443 -0.54456,0.15573 -2.73085,1.35592 -1.69145,0.74681 25.19953,-14.76739 16.5233,-10.13423 11.4923,-6.45381 -5.05033,4.01668 -9.17797,8.91104 -12.40084,14.51975 -2.78782,5.26364 -5.43504,10.9921 -5.39173,17.08217 0.0752,0.20859 0.15319,0.79406 0.27223,0.60698 0.16719,-0.26279 0.11571,-0.32938 0.4801,-0.44854 -4.89238,2.93158 -9.78476,5.86315 -14.67715,8.79473 0.9777,-0.84005 1.33232,-2.25472 1.84489,-3.37487 1.33352,-4.88614 2.64626,-9.77863 3.89266,-14.68761 0.81534,-2.90112 1.4668,-5.95593 3.19577,-8.47363 1.32297,-1.33313 1.94679,-3.13247 2.88589,-4.73723 0.27343,-0.68439 0.77831,-2.19498 1.26353,-2.73348 0.10178,-0.11296 0.29196,-0.13121 0.37641,-0.25765 0.10625,-0.15908 0.10878,-0.36682 0.16318,-0.55023 0.12961,-0.47512 0.93029,-2.02552 0.0131,-2.11146 -1.0927,-0.006 -2.07868,0.65941 -3.12397,0.90952 -0.8081,-0.15361 -1.48459,-0.11535 -2.21965,0.26295 -5.26956,2.1823 -12.19032,7.12933 12.83122,-7.5889 0.37943,-0.22319 -0.80892,0.35312 -1.18766,0.57747 -0.92707,0.54916 -1.92099,1.39354 -2.74892,2.05207 -3.11767,3.16966 -5.53765,6.84459 -7.67036,10.73696 -0.26816,0.45466 -0.54537,0.9041 -0.80449,1.36397 -0.18011,0.31966 -0.20204,0.77897 -0.51284,0.97398 -4.07019,2.55378 -11.11536,11.6498 -17.21315,8.64178 -1.06918,-0.60031 -2.01163,-1.42957 -2.80417,-2.36247 -0.91702,-1.41132 -1.04791,-2.81056 -0.44778,-4.40575 0.88296,-2.2421 2.12433,-4.2283 3.30345,-6.32367 1.27385,-2.77132 2.69703,-5.47285 4.00542,-8.22809 1.24333,-2.80523 2.77537,-5.24993 4.948,-7.44717 2.38778,-2.46463 4.84348,-4.93631 7.45422,-7.13152 0.28018,0.33514 0.5883,0.64878 0.84055,1.00542 0.0706,0.0998 0.009,0.40654 0.11648,0.34767 25.9967,-14.28678 16.85282,-10.70793 11.82748,-6.46974 -1.36864,1.13049 -2.7873,2.19462 -4.13488,3.33109 -0.58621,0.39059 -0.98255,0.83932 -1.51319,1.26832 -0.81341,0.65762 -1.94306,0.94064 -2.71863,1.66419 -2.86732,2.33177 -5.88149,4.48846 -8.86429,6.6641 -1.64596,1.19954 -3.31461,2.60575 -5.06864,3.641 -5.38234,3.17669 -10.76828,6.35068 -16.24089,9.36921 -4.58426,2.52854 9.04617,-5.27288 13.57528,-7.89894 0.42253,-0.24499 -0.83691,0.50376 -1.25537,0.75564 -6.38338,4.62247 -13.0399,9.46171 -20.72462,11.42557 -1.93432,0.15816 -4.37779,-0.12049 -3.66027,-2.78147 2.18784,-4.48476 5.11188,-8.60385 7.48769,-12.99113 2.71658,-4.1698 5.28386,-8.43725 8.06542,-12.56472 0,0 15.99369,-6.99778 15.99369,-6.99778 z"
         id="path2912"
         style="fill:#3eb891;fill-opacity:1;fill-rule:nonzero;stroke:none" />
      <path
         style="fill:#6ec9dc;fill-opacity:1;fill-rule:nonzero;stroke:none"
         id="path2914"
         d="m 102.64997,235.75274 c 4.96378,2.00229 10.24038,2.89342 15.46494,3.89637 3.29168,0.84413 6.62538,1.34078 10.02208,1.34035 0.92513,0.52351 3.53973,-0.67596 4.40683,-0.3118 0.092,0.0387 -0.17562,0.095 -0.26345,0.14245 -0.67528,-0.21233 3.14477,-2.19385 0.32256,-0.86223 24.40547,35.68653 18.61785,23.0922 11.73081,18.25203 -4.58224,-3.22038 -9.4518,-6.07672 -14.11596,-9.18144 -5.11137,-3.22495 -9.80911,-7.00308 -14.4835,-10.81371 -0.84233,-0.085 -1.39912,-1.69717 -2.07157,-2.01386 -0.11964,-0.0564 -0.32362,0.20536 -0.38662,0.0891 -12.04127,-22.22794 -18.718225,-25.21683 -10.6988,-21.43667 0.21238,0.0574 0.50757,-0.005 0.63716,0.17247 4.94537,6.78598 10.15306,13.41465 14.50004,20.59866 4.18934,6.92345 -9.33345,-13.22218 -14.02588,-19.81504 -0.11521,-0.16185 0.14435,0.38679 0.29232,0.51935 0.33347,0.29878 0.71624,0.54693 1.11813,0.74433 0.70674,0.34717 1.46106,0.58764 2.1916,0.88145 6.19613,2.96811 12.88987,4.27324 19.60726,5.39945 0.076,0.81388 9.60437,0.69329 6.49049,0.40764 -1.13502,-0.91205 -1.71346,-2.18731 -2.11844,-3.53447 -0.12367,-0.99288 0.10624,-0.60124 -0.65406,-1.19513 4.57982,6.41165 9.17617,12.81152 13.73946,19.23495 0.17778,0.25026 -0.38216,-0.48068 -0.58185,-0.71384 -0.73891,-0.86278 -0.46485,-0.57558 -1.47674,-1.25252 -7.35347,-3.71734 -22.30742,-29.09713 -12.68985,-21.78892 5.2746,3.40672 10.92403,6.03274 16.85136,8.06326 4.07911,1.31776 8.21356,2.1317 12.4498,1.27379 0.30648,-0.0868 0.62312,-0.14376 0.91945,-0.26067 0.13599,-0.0537 0.32747,-0.10386 0.36338,-0.24561 0.12579,-0.49622 -0.48946,0.30351 -1.25724,-0.19197 -0.29915,-0.19304 -0.33662,-0.63292 -0.56323,-0.90752 -0.26369,-0.31952 -0.59752,-0.57401 -0.89628,-0.86103 25.9755,34.48649 14.26757,19.34439 7.87942,11.90757 -7.66388,-8.23774 -15.97288,-16.77093 -20.02872,-27.33062 -1.49929,-3.58588 2.61565,-4.31757 5.28565,-4.1111 5.06691,1.26064 9.94879,2.98353 15.16435,3.55921 4.13333,0.25311 8.21838,-0.37809 11.69882,-2.68583 1.62008,-1.25722 0.71927,-1.82684 -0.67532,-2.49408 30.59279,49.03346 18.11059,21.87849 12.26085,17.55004 -1.6509,-1.22157 -3.63808,-2.09988 -5.41734,-3.11079 -0.65919,-0.38175 -1.31889,-0.76266 -1.9776,-1.14527 -0.22218,-0.12905 -2.17949,-1.28883 -2.68186,-1.53016 -0.19383,-0.0931 -0.5026,-0.0311 -0.60674,-0.21925 -12.24669,-22.12629 -18.83082,-24.24872 -9.73116,-20.75515 4.51583,2.10823 9.09135,4.05051 13.78974,5.71453 4.75518,1.90176 9.79081,2.13254 14.84027,2.03815 0.60516,-0.0537 7.65895,-0.98184 6.95016,-1.94962 -0.38432,-0.29794 -0.92516,-0.0751 -1.32483,-0.28571 -0.23995,-0.12644 -0.36467,-0.40159 -0.54701,-0.60238 4.5623,6.32914 9.18627,12.61428 13.68689,18.98742 0.39029,0.55269 -0.87482,-1.03404 -1.34918,-1.51649 -0.65268,-0.6638 -1.35258,-1.27943 -2.02888,-1.91915 -3.32917,-3.16638 -7.06952,-5.83363 -10.64311,-8.70464 -7.18523,-5.86013 -2.36961,-1.82825 -15.65675,-20.90486 -0.42298,-0.60728 2.25024,-2.56595 3.08566,-2.29264 2.00696,0.83191 3.9557,1.88715 5.95429,2.79559 2.24302,1.21551 4.6025,1.94073 7.12922,2.2046 2.31226,-0.007 4.74026,0.11679 7.00012,-0.46861 1.30856,-0.11104 -1.1099,-0.50386 -1.00495,-0.34418 21.56252,32.80835 17.30865,22.66512 10.55717,16.06598 -4.41577,-3.83299 -9.43049,-6.89111 -14.23644,-10.20303 -0.15565,-0.0955 -0.37823,-0.12684 -0.46696,-0.28644 -14.06918,-25.30644 -17.04826,-25.43987 -6.20333,-17.79685 3.5909,2.63638 7.61334,4.24573 11.86237,5.44574 5.02978,1.45124 10.25209,1.817 15.45915,1.85803 0.6323,0.63243 4.08752,-1.18836 1.84561,-0.93 -7.00531,-4.9002 -0.20296,-0.2186 13.42153,19.16633 0.17274,0.24577 -0.42818,-0.42164 -0.63472,-0.63978 -0.92927,-0.98156 -1.84222,-1.93734 -2.83854,-2.85378 -2.29568,-1.56405 -4.44771,-3.46874 -6.94918,-4.7088 -4.90585,-6.76512 -10.44728,-13.1121 -14.71756,-20.29535 -0.3923,-0.65991 1.14434,-1.03505 1.79341,-1.44505 1.34621,-0.85035 2.71643,0.32112 3.89739,0.88626 2.13171,1.01182 4.07371,2.3474 6.2406,3.28295 2.31275,0.7777 4.64893,0.43596 6.97603,-0.0537 3.77449,-1.09135 7.71114,-2.26291 10.90618,-4.63199 0.60745,-0.41286 1.01557,-1.05742 0.33713,-1.65551 -0.41068,-0.36204 -1.66218,-1.38786 -1.34638,-0.94064 4.57639,6.48071 9.25714,12.88712 13.8857,19.33068 -0.7777,-1.24212 -1.95599,-2.13178 -3.08429,-3.03462 -6.89054,-4.18732 -21.62552,-28.26229 -11.22892,-21.97491 2.74193,1.98565 5.41904,4.05741 8.18693,6.00907 0.27201,0.94867 3.18161,0.99033 3.62569,1.40874 0.0658,0.0619 -0.13283,0.1226 -0.19925,0.18389 -2.31762,1.19067 -1.39699,-0.22857 -0.99932,-1.51377 -9.46958,-4.31136 20.60115,26.43363 11.58786,17.7504 -0.0906,-0.15966 -0.13469,-0.3567 -0.27158,-0.47899 -0.36271,-0.32408 -0.84934,-0.48089 -1.23462,-0.77777 -6.62584,-5.10554 -11.90033,-20.75769 -12.70585,-22.21286 0.42426,-0.0162 0.85125,-0.0994 1.27281,-0.0487 1.66327,0.19966 3.35269,1.05157 4.99191,1.40545 2.41101,0.5205 3.03307,0.49655 5.56201,0.73071 4.93599,0.29759 9.87944,0.0486 14.79172,-0.45707 -0.55791,0.33317 2.1766,-0.61745 1.55574,-0.65196 -0.27071,-0.015 -0.52115,0.17081 -0.79186,0.18589 -0.1887,0.0102 -0.37065,-0.0739 -0.55598,-0.11081 4.56969,6.52287 9.13937,13.04575 13.70905,19.56861 -1.52703,-2.20303 -4.01114,-3.48304 -6.35024,-4.66652 -10.06998,-5.53964 -2.9426,-1.09344 -15.3814,-23.35048 1.94012,-0.024 3.86084,0.36222 5.79983,0.46649 1.73236,0.0986 0.0854,-0.10049 -0.50165,-0.36171 -6.83767,-10.50391 20.44458,25.18568 11.18196,16.04589 -1.52968,-0.8638 -2.63507,-2.22487 -4.10778,-3.14406 -0.23519,-0.14394 -0.47037,-0.28788 -0.70555,-0.43183 0,0 -12.07118,-21.71497 -12.07118,-21.71497 l 0,0 c 0.23545,0.14691 0.4709,0.29383 0.70635,0.44074 0.68393,0.41547 1.63931,0.69815 2.25965,1.18311 0.47128,0.36844 0.69242,0.99527 1.15765,1.37132 0.27678,0.22374 0.61644,0.35589 0.92465,0.53383 0.88175,0.51095 1.12005,0.52376 1.7255,1.32552 7.78105,10.3041 12.38856,13.67768 16.14886,22.41434 -0.14687,1.79155 -1.67727,3.52957 -3.56467,3.40805 -1.8154,-0.0715 -3.68139,-0.15304 -5.44313,-0.58453 -28.13857,-46.34828 -17.79154,-22.82442 -10.18887,-19.17703 2.25288,1.52635 4.93136,2.4197 7.11124,4.0946 2.46332,3.49394 23.40857,20.40927 10.68708,23.93348 -5.08892,0.18468 -10.18292,0.44479 -15.27565,0.30539 -2.7075,-0.10692 -8.89456,-0.006 -11.01863,-1.89442 -4.42415,-7.11378 -8.8483,-14.22757 -13.27245,-21.34135 0.65689,0.79476 1.21488,1.8039 2.29254,1.93794 6.33513,6.91223 18.24311,13.92453 16.16835,23.2951 0.0681,0.48174 0.41581,0.49273 0.53112,0.81203 0.36079,0.99906 -0.95761,1.66761 -1.52576,2.22573 -1.72188,0.95206 -3.84389,0.23508 -5.57866,-0.52708 -3.05497,-1.5357 -5.66128,-3.97598 -8.32293,-6.08735 -7.1742,-4.86146 -18.28957,-30.53288 -14.21568,-23.24305 0.11619,0.20787 0.084,0.48748 0.22834,0.67691 0.0309,0.0406 1.44436,1.14574 1.48219,1.17542 1.18858,0.93174 2.41477,1.8169 3.59016,2.76089 4.94482,6.84308 9.96474,13.63251 14.83445,20.52922 1.20419,1.70541 -0.70974,4.00233 -1.97939,4.92 -3.56283,2.34822 -7.73466,3.59231 -11.70941,5.05855 -2.66512,0.74409 -5.18321,1.41083 -7.9759,0.92229 -2.48284,-0.48853 -4.48332,-1.84813 -6.63383,-3.11253 -0.34809,-0.18072 -2.28938,-0.72937 -2.26831,-1.31142 0.0305,-0.84211 2.39717,-0.9588 1.78673,-1.78836 -4.76424,-6.52626 -9.52849,-13.05253 -14.29273,-19.5788 1.0411,2.16229 5.0018,3.40924 6.75897,5.04583 7.6221,4.85728 18.49798,20.68666 18.63423,24.44053 -1.29469,2.28337 -2.9366,3.19388 -5.61487,3.30986 -5.33788,-0.26586 -10.73963,-0.44811 -15.95924,-1.67825 -4.49008,-0.95626 -8.73634,-2.40143 -12.59491,-4.95308 -10.56103,-7.05042 -6.83178,-6.68478 -17.48445,-25.55865 -0.12373,-0.21923 0.37691,0.33381 0.56535,0.50071 4.62651,3.7549 9.65878,6.8834 14.53479,10.29103 7.57024,6.30337 25.17338,19.44418 15.86632,26.40178 -2.45189,0.95143 -5.25724,0.61678 -7.8456,0.90929 -2.75866,-0.0162 -5.52857,-0.42828 -7.97581,-1.78317 -1.47135,-0.69417 -3.1369,-1.17864 -4.5336,-2.00613 -0.19754,-0.11703 -0.28521,-0.38709 -0.49611,-0.47784 -0.2388,-0.10275 -0.51784,-0.0466 -0.77676,-0.0699 -0.79622,-0.54143 -0.43885,-0.168 1.21162,-1.40198 0.21977,-0.16432 0.9531,0.003 0.79328,-0.21994 -13.18315,-18.40029 -20.1828,-24.82749 -13.49942,-18.6068 3.50596,3.14108 7.33578,5.85008 10.85775,8.97417 8.76241,7.38974 7.44433,8.15343 18.6195,23.60758 0.7402,1.02362 0.28226,1.91705 -0.30598,2.89501 -2.39215,2.34102 -6.04595,2.3196 -9.17374,2.90254 -5.24772,0.12549 -10.60463,0.25354 -15.60772,-1.59276 -4.63612,-1.66122 -9.28529,-3.27877 -13.71164,-5.4692 -9.35712,-3.55741 -1.18395,-0.11756 -14.48165,-22.46216 -0.11111,-0.18662 0.18505,0.41009 0.35329,0.54742 1.43482,1.1712 3.35464,1.78439 4.80719,2.93511 13.83741,8.04119 5.49626,-0.45407 22.58319,24.51051 0.40949,2.1177 -0.6474,3.94047 -2.48589,5.03464 -4.06329,2.30886 -8.53599,3.29886 -13.22077,3.17136 -5.17431,-0.25919 -10.118,-1.65151 -15.06766,-3.12638 -0.14357,-0.0306 -1.77071,-0.36009 -2.03835,-0.47313 -0.38083,-0.16083 0.0793,-0.34149 0.1814,-0.25202 0.44251,0.38772 0.30843,1.23664 0.79309,1.5768 4.26709,7.01026 12.1224,17.11249 -11.95288,-16.13961 -0.67127,-0.92712 1.51518,1.71759 2.31778,2.53369 0.41955,0.42661 0.81988,0.8717 1.22982,1.30756 7.85995,8.40602 14.36316,17.93892 20.85709,27.44335 1.49172,3.10852 1.14513,4.60765 -2.41297,5.5475 -4.69465,0.88761 -9.2073,0.53263 -13.76478,-1.01023 -5.97828,-1.92447 -11.69763,-4.32452 -17.14711,-7.46423 -8.82701,-4.13822 -22.88094,-28.50724 -11.10868,-21.49772 0.76087,0.66753 1.91293,0.88728 2.51448,1.70263 27.77652,37.64887 11.32718,12.01984 15.40005,22.10662 0.7007,1.37745 1.65758,2.59985 1.31602,4.26358 -1.31137,2.04386 -2.37715,2.48917 -4.7827,2.26602 -3.14726,-0.29195 -2.08463,-0.17826 -5.48377,-0.84607 -6.71329,-1.21542 -13.55522,-2.08578 -19.86231,-4.8644 -12.02982,-4.62412 -2.25969,7.18314 -18.97019,-21.6288 -3.968355,-6.84217 14.8665,28.29724 14.1004,19.08526 -7.16465,-5.58893 0.3298,0.35626 -12.77457,-22.59438 -0.0649,-0.1136 -0.27245,0.23873 -0.19228,0.34209 0.1254,0.16164 2.65582,1.72315 2.42917,2.18037 4.46369,4.28955 9.42024,8.0834 14.52765,11.57595 3.60917,2.44527 7.2178,4.88135 10.98153,7.08626 0.91963,0.53875 1.85438,1.05151 2.79187,1.55851 0.5949,0.32171 1.3927,0.39091 1.80465,0.92728 5.22295,6.80047 9.98189,13.94506 14.97285,20.91758 -0.74821,0.87077 -1.5478,1.59099 -2.30534,2.4358 -1.62471,1.12404 -3.70515,0.65637 -5.62437,0.85329 -3.58512,-0.01 -7.15725,-0.16347 -10.61031,-1.25302 -5.15279,-1.36229 -10.49397,-2.01783 -15.62773,-3.50385 0,0 -12.41941,-21.36724 -12.41941,-21.36724 z" />
      <path
         style="fill:#df1463;fill-opacity:1;fill-rule:nonzero;stroke:none"
         id="path2916"
         d="m 139.72953,317.32398 c 4.38789,2.61594 8.97414,4.85883 13.52642,7.16592 4.37767,2.09405 8.75769,4.24157 13.31968,5.91323 1.43473,0.13795 0.0428,0.28722 -0.0652,0.19807 -0.0139,-0.0114 -0.65973,-1.64884 -0.79474,-1.86568 -2.55352,-5.54689 -8.75698,-12.93084 8.16976,10.88992 0.25177,0.3543 -0.51585,-0.69985 -0.78267,-1.04298 -0.29852,-0.38389 -0.60876,-0.75854 -0.91314,-1.13781 -6.90682,-8.8728 -21.82585,-30.54806 -2.74195,-3.66208 0.37623,0.53005 -0.79392,-1.02962 -1.20441,-1.53361 -0.93543,-1.14852 -1.88749,-2.22524 -2.85925,-3.34295 -2.3632,-2.74214 -4.84822,-5.37923 -7.35228,-7.99296 -1.1771,-1.18037 -2.14513,-2.51933 -3.31298,-3.69789 -1.21398,-1.37195 -2.50532,-2.67535 -3.77007,-4.00326 -5.3091,-5.07876 -7.72948,-9.33243 -12.69722,-16.83897 -0.12828,-0.19384 0.16893,-0.4608 0.35487,-0.60026 0.46484,-0.34866 1.02561,-0.54652 1.53842,-0.81978 0.34723,0.11611 0.7181,0.17705 1.04171,0.34834 1.66388,0.88068 3.08225,2.39697 4.48317,3.61316 1.62257,1.40858 1.65972,1.41097 3.26882,2.68851 2.27873,1.77491 4.67753,3.26902 7.36131,4.33005 2.84663,1.07106 5.71041,2.09633 8.56906,3.13492 2.23245,0.70364 4.27168,1.87774 6.49695,2.58954 0.8823,0.21338 2.05803,0.72747 2.8188,-0.0299 0.61369,-0.75947 1.10619,-1.48961 1.3035,-2.44483 0.17126,-0.52337 -0.30032,-0.51239 -0.63688,-0.82824 3.22815,4.55792 6.52317,9.06921 9.68446,13.67374 0.18929,0.27571 -0.47751,-0.47321 -0.75233,-0.6638 -0.4519,-0.3134 -0.94589,-0.56129 -1.41882,-0.84192 -4.03796,-1.98596 -8.05492,-3.95202 -11.75833,-6.52293 -6.05395,-5.28938 -11.78684,-11.85152 -14.49538,-19.46422 -0.34351,-0.75765 0.29623,-1.8151 -0.51357,-2.21059 -0.79025,-1.1485 -0.85802,-2.33054 -0.50259,-3.62957 1.0039,-1.48328 2.64239,-1.94325 4.34641,-1.79529 1.44401,0.0784 2.71616,0.79053 4.04603,1.31312 1.81464,0.64922 3.60063,1.35771 5.34321,2.17869 2.54317,1.69673 5.54854,2.35329 8.47816,3.04804 4.87655,0.93954 9.79109,1.65388 14.73094,2.15635 1.34899,0.13083 2.63917,0.53055 3.93577,0.8942 3.51675,4.81928 7.08676,9.60015 10.55024,14.45786 0.72509,1.01698 -1.67079,2.10256 -2.19922,2.36316 -6.22864,1.00656 -13.37324,-1.40033 -19.16085,-3.5483 -5.91313,-2.47084 -11.34387,-5.85948 -16.08277,-10.16044 -5.30101,-5.48546 -12.18984,-11.20308 -13.24103,-18.91286 1.17341,-2.76458 4.53351,-2.17433 6.86344,-1.69399 5.52621,1.53603 10.55934,4.35977 15.87673,6.45473 6.3263,2.33204 12.9318,3.72721 19.52531,5.05214 3.5497,0.79595 7.16678,1.1075 10.77122,1.50793 6.88862,1.25236 1.58163,-0.5818 9.7807,15.38898 0.13884,0.27044 -0.57141,-0.21182 -0.84199,-0.35041 -1.43052,-0.73271 -1.65673,-0.9897 -3.04809,-1.99981 -4.65202,-3.25705 -8.89893,-7.01779 -13.08083,-10.84496 -5.66549,-5.35537 -14.85427,-14.25649 -15.25345,-20.68991 0.0442,-2.04798 1.31876,-3.31685 3.15372,-3.9664 4.02722,0.0996 7.70896,2.51979 11.31025,4.13133 3.78158,1.74846 7.90221,2.36961 11.9929,2.91649 6.58289,0.10823 20.12682,13.62829 11.18167,16.28663 -2.58014,0.42202 -5.24796,0.50768 -7.85136,0.23863 -6.279,-1.49439 -12.3258,-14.80012 -12.95788,-15.66738 3.29717,4.56716 6.61869,9.11684 9.89152,13.70149 0.11726,0.16422 -0.30198,-0.27202 -0.421,-0.43496 -3.52166,-4.82126 -6.96584,-9.6989 -10.49754,-14.51281 -3.29156,-4.4866 6.52664,9.01438 9.77712,13.53083 0.23984,0.33326 -0.50748,-0.64571 -0.75268,-0.97505 -0.39545,-0.37669 -1.91502,-1.40359 -2.40049,-0.6925 0.64501,0.20899 0.50036,0.85873 0.73248,1.37358 0.42878,0.95113 0.81859,1.27278 0.94759,2.37926 2.53982,5.41157 9.10672,13.427 -8.56244,-11.56554 -0.28271,-0.39989 0.73915,0.65378 1.16602,0.89383 2.51355,0.80194 5.24284,0.3787 7.8231,0.18172 2.99877,-0.23969 5.97829,-0.65091 8.96233,-1.02009 1.76278,-0.35487 3.48831,0.15523 5.22679,0.4068 4.20485,0.44441 8.44535,0.59971 12.67234,0.68831 3.98456,-0.25909 8.2234,0.2937 12.09412,-0.90936 0.0735,-0.0532 0.30246,-0.19852 0.22042,-0.15975 -6.11846,2.89185 2.2417,5.02031 8.87209,14.58948 0.0908,0.13103 -0.13636,-0.29776 -0.25431,-0.40498 -0.34324,-0.31201 -1.02591,-0.4835 -1.41294,-0.61707 -4.0066,-1.48839 -8.25641,-2.02173 -12.49501,-2.29294 -2.93147,-0.14692 -5.85417,0.22798 -8.77565,-0.10782 -6.47829,-0.0246 -16.60241,-12.26977 -9.9725,-15.45642 1.3649,-0.65603 3.57169,-0.0992 4.96013,0.0363 2.98855,0.15381 6.02962,0.84976 9.03112,0.60808 0.0582,-0.0373 0.22836,-0.0683 0.17465,-0.1118 -0.10988,-0.089 -0.28346,-0.034 -0.41586,-0.0836 -0.20819,-0.078 -0.39841,-0.19735 -0.59762,-0.29602 3.08556,4.41852 6.23631,8.79224 9.2567,13.25557 0.32908,0.48631 -0.75757,-0.89946 -1.17481,-1.31264 -0.62354,-0.61749 -1.29584,-1.18374 -1.94376,-1.77562 -4.24391,-3.64341 -8.58793,-7.16198 -12.55542,-11.11362 -4.8459,-5.58511 -2.08083,-2.32422 -11.52242,-16.02944 -0.42689,-0.61966 -0.37692,-1.50922 -0.25131,-2.20292 0.10239,-0.7188 0.0365,-0.96197 1.03103,-1.30942 1.45497,-0.5083 2.5627,0.76286 3.61039,1.53569 4.14457,3.39197 8.32405,6.69775 12.83169,9.59672 4.11429,2.48109 8.30496,4.80247 12.69415,6.75459 2.44596,1.33677 5.09004,1.52561 7.81449,1.48127 -0.34807,0.27839 5.40009,-0.61276 4.18001,-0.85938 -0.22465,-0.002 -0.46852,0.0863 -0.67395,-0.005 -0.54045,-0.23923 -1.54238,-1.78738 -1.19861,-1.30661 16.33678,22.8476 12.05225,15.49068 7.58686,11.14853 -3.24779,-2.66863 -6.75932,-4.99148 -10.1489,-7.47351 -2.51191,-1.84339 -4.84654,-3.89577 -6.95355,-6.18853 -0.91327,-0.8808 -1.60442,-1.93514 -2.53208,-2.79913 -11.08245,-20.52964 -11.55506,-16.76628 -1.98282,-11.11623 5.4807,2.98043 11.59539,3.79492 17.68637,4.50689 6.59424,0.65378 13.15557,1.62035 19.72419,2.4956 2.21094,0.18181 4.42461,0.70628 6.65399,0.49762 0.34172,-0.0318 -0.66395,0.17477 -0.99185,0.27605 16.76868,26.557 12.13502,16.2534 7.98391,11.90359 -1.63128,-1.70936 -3.49318,-3.19848 -5.30147,-4.71065 -3.89483,-3.13918 -7.44996,-6.66487 -10.98805,-10.19215 -1.94651,-1.93873 -4.09744,-3.64726 -6.21318,-5.39249 -4.23117,-4.1036 -16.10155,-13.06965 -9.06346,-16.99237 1.72184,-0.9082 3.46669,0.10538 5.06207,0.83386 4.76433,2.65394 9.40632,5.49858 14.3305,7.85327 3.12554,1.47695 6.29233,2.70343 9.72867,3.14605 2.84875,0.40736 5.71387,0.6321 8.5911,0.59059 1.08623,-0.0484 2.25635,0.10336 3.12084,-0.6712 0.0305,-0.0396 0.13938,-0.13348 0.0915,-0.11891 -6.31346,1.92273 8.10822,12.92533 8.88812,14.14061 0.25463,0.39679 -0.80205,-0.49634 -1.21231,-0.72864 -4.29631,-2.43271 1.08245,0.75628 -4.09069,-2.35551 -5.17982,-2.91536 -10.08204,-6.21479 -14.72929,-9.91394 -4.93763,-4.37574 -17.1387,-11.71659 -12.65071,-17.75057 2.11027,-1.73052 3.90336,0.31177 5.63701,1.58178 1.34947,1.07684 2.71508,2.1119 4.38224,2.59965 2.72502,0.90346 5.59489,0.69355 8.37707,0.22966 1.73294,-0.32394 3.39752,-0.91496 5.11838,-1.28707 1.40939,-0.21812 2.72915,0.11033 3.99019,0.72108 0.36292,0.41886 2.35773,0.6564 1.92465,1.22383 -1.84529,1.17664 -1.30234,1.61161 -2.03912,0.027 -0.22994,-0.4945 -0.58105,-0.92308 -0.86535,-1.38845 -2.6981,-4.93383 -9.49506,-13.66805 8.63654,11.86306 0.19143,0.26954 -0.43746,-0.49582 -0.65171,-0.74759 -1.56196,-1.83552 0.21206,0.19324 -1.50011,-1.74795 -2.12545,-2.13263 -4.10919,-4.39689 -6.15347,-6.60537 -4.56132,-5.44316 -2.96582,-3.48933 -11.45898,-15.83023 -0.62188,-0.90362 -0.12953,-2.08324 0.46716,-2.74663 1.70577,-1.54787 3.54327,-0.091 5.18086,0.78205 1.64685,0.83426 3.14107,1.9293 4.82834,2.68208 6.22467,1.76931 15.87497,10.85575 11.14013,15.77695 -0.9958,0.73433 -2.26383,1.02977 -3.4192,1.4798 -3.02384,0.80692 -6.01441,1.73607 -9.01522,2.62659 -5.08043,1.45965 -9.92011,3.59626 -14.60505,6.01959 -3.75858,1.99145 -7.45635,4.12603 -10.98151,6.50971 -2.11489,1.58122 -4.56606,2.58468 -6.81365,3.94106 -1.21196,0.60262 -2.1839,1.54788 -3.29785,2.30838 -1.43429,0.69505 -3.05178,0.78839 -4.57265,1.23661 -1.84837,0.70478 -3.7878,1.06918 -5.726,1.42016 -1.35389,0.21387 -2.70777,0.4236 -4.07216,0.55742 -2.2175,0.21118 -4.41141,0.78219 -6.51973,1.49176 -2.33655,0.79721 -4.63798,1.68539 -6.97594,2.47778 -3.9515,1.06025 -4.35837,1.40969 -3.56608,5.5009 0.57167,1.71758 1.21819,3.36193 2.21073,4.88088 0.25826,0.39523 1.09599,1.53801 0.8212,1.15407 -9.62454,-13.44779 -12.79625,-17.48084 -9.0973,-12.76131 -0.15167,0.98689 -1.09891,0.28193 -1.41523,-0.18738 -3.36605,-4.60749 -7.45331,-11.11272 7.63007,10.69085 0.44396,0.64176 -0.97952,-1.21748 -1.51837,-1.78193 -1.65417,-1.7328 -2.18614,-2.0202 -4.1054,-3.49261 -3.30539,-2.10538 -6.58047,-4.35126 -10.19118,-5.91446 -0.88584,-0.46296 0.3688,0.70102 0.58142,1.12877 0.40389,1.47273 1.4774,2.60035 2.04411,3.99399 0.12585,0.90378 0.66414,1.85799 0.60848,2.78801 -0.0328,0.54721 -0.24888,1.06803 -0.35251,1.60635 -0.29505,1.88208 -1.27191,3.41815 -2.84202,4.46126 -1.74878,0.93044 -3.67311,0.53002 -5.46319,-0.0523 -2.53018,-0.9357 -4.76624,-2.39914 -7.42745,-2.97109 -0.34659,0.0273 -0.71599,-0.0451 -1.03982,0.0814 -1.92767,0.75302 -1.66735,6.29432 -1.57727,7.832 0.38228,4.72124 2.02873,9.19261 3.45404,13.67121 0.6823,2.21011 1.81608,6.06522 -0.87658,7.53116 -0.66171,0.36024 -1.43944,0.44561 -2.15917,0.66841 -6.21856,0.20821 -12.19027,-1.84015 -18.11077,-3.47 -3.99185,-0.96839 -7.9958,-1.8912 -11.92731,-3.08632 -6.09677,-2.68388 -12.24838,-5.06326 -18.69888,-6.74905 -1.60072,-0.1413 -6.71089,-2.04534 -8.247,-0.75869 -0.42014,0.35191 -0.0909,1.08356 -0.0116,1.42446 1.12365,2.81467 2.46241,5.48428 4.14244,8.00813 0.93922,1.77427 2.50931,2.93917 0.75495,4.65599 -0.82102,0.70231 -0.84745,1.07826 -0.79362,2.08383 0.2658,1.64232 0.001,3.17775 -0.34021,4.78218 -0.0856,1.14587 -0.8869,1.66581 -1.76172,2.25119 -0.6909,0.45596 -0.89139,0.96272 -1.43437,1.54947 -0.31255,1.0189 -1.09371,1.8272 -1.96301,2.42134 0.0261,0.23603 -3.57964,0.80146 -2.43901,0.39678 0.14316,-0.0106 0.84176,-0.0732 0.92114,-0.0358 0.14926,0.0701 0.39047,0.53171 0.29436,0.39768 -17.18357,-23.96437 -12.62608,-16.96989 -8.83851,-12.43919 -44.044465,14.32784 11.24484,9.25121 11.05736,15.5755 -0.0156,0.52638 -0.54707,1.07662 -0.8709,1.4431 -5.82748,4.5945 -11.46454,-7.8505 -11.99686,-14.14783 0,0 11.9585,12.94645 11.9585,12.94645 l 0,0 c 2.94531,5.83578 -6.49334,-18.68933 -10.82624,-12.71967 -0.5436,-0.21255 -0.7771,-0.44283 -1.08756,-0.99806 3.27667,4.49582 6.55333,8.99164 9.83,13.48746 -4.48319,-4.91778 -6.47671,-8.63037 -11.54314,-15.69809 -0.47844,-0.66742 -0.10242,-1.19645 0.31131,-1.79651 0.93693,-0.80262 1.83595,-0.79955 3.03626,-0.75443 0.79538,-0.32168 0.93871,-1.57359 1.53774,-2.13225 0.53691,-0.63495 0.98496,-1.32471 1.72618,-1.76329 0.6295,-0.4972 0.66636,-0.51686 0.78391,-1.39537 0.27862,-1.55562 0.0912,-3.09615 0.18886,-4.66685 0.2178,-1.14601 0.74233,-1.94598 1.52942,-2.78231 -0.77124,0.31606 -1.70163,-2.67818 -2.18705,-3.05544 -1.57575,-2.7086 -3.22954,-5.6715 -3.31249,-8.86394 0.16064,-0.46884 0.22508,-0.98267 0.48192,-1.40651 2.11697,-3.49349 7.64219,-0.87348 10.54235,-0.37421 6.30379,1.63783 12.50621,3.59059 18.491,6.1789 3.92874,1.41577 8.00096,2.40051 12.03925,3.4477 5.64024,1.56088 11.26267,3.63439 17.18544,3.67857 0.42422,-0.0735 0.88396,-0.0354 1.27267,-0.22047 1.49387,-0.71149 -0.0894,-5.1946 -0.368,-6.18008 -1.4003,-4.55939 -2.89834,-9.15285 -3.0651,-13.9626 0.0427,-3.11403 0.0604,-7.8675 3.37298,-9.51628 0.47314,-0.23549 1.02851,-0.24378 1.54277,-0.36566 2.77257,0.32686 5.16246,1.38708 7.58708,2.72805 1.31084,0.41642 2.78531,1.22944 4.16616,0.86296 1.20837,-0.68302 1.43963,-2.25014 1.61224,-3.52063 0.0631,-1.30293 -0.42422,-2.5719 -1.03379,-3.7144 -0.79961,-1.30279 -1.40837,-2.69702 -1.86303,-4.15702 -0.39478,-1.8189 0.72141,-3.27666 2.60322,-3.41497 3.96193,1.21713 7.17666,4.23056 10.8371,6.07691 8.08694,5.51723 13.95801,13.23766 18.22586,22.27383 0.32261,1.59638 -0.80534,2.80772 -2.39751,2.90433 -5.29536,-3.48401 -12.04845,-13.87944 -13.69764,-21.60621 -0.1073,-4.50129 0.98561,-5.97063 5.31348,-7.04251 2.32916,-0.79488 4.61299,-1.70565 6.94709,-2.48707 2.18991,-0.80092 4.52546,-1.29026 6.77537,-1.85501 1.34529,-0.14323 2.69648,-0.23359 4.03615,-0.42721 1.87608,-0.26401 3.74049,-0.61799 5.52895,-1.26082 1.36281,-0.45313 2.71579,-0.7946 4.11228,-1.0952 1.18777,-0.69426 2.16979,-1.6849 3.43626,-2.24406 2.2817,-1.2577 4.72896,-2.20189 6.84196,-3.75738 3.68728,-2.24675 7.40795,-4.45693 11.29097,-6.35148 4.75968,-2.45184 9.64408,-4.68966 14.73093,-6.38132 2.91782,-0.91577 5.81721,-1.88899 8.73568,-2.7965 0.15371,-0.061 2.83632,-1.38075 2.24057,-0.79197 -0.17766,0.12598 -0.32819,0.3038 -0.53298,0.37791 -0.0656,0.0238 -0.20964,-0.18047 -0.1687,-0.12395 3.35255,4.62911 6.73959,9.23314 10.10939,13.84971 -0.14486,-0.49876 -0.0934,-0.79833 -0.706,-0.90118 -1.80171,-0.71405 -3.42536,-1.65607 -5.04841,-2.71359 -0.82404,-0.45657 -2.84801,-1.1119 -2.85716,-2.08559 0.0633,-0.006 0.14353,-0.0611 0.19,-0.0174 0.19459,0.18201 0.1843,0.50332 0.32086,0.73211 0.12051,0.20192 0.53424,0.77414 0.39606,0.58386 -9.45976,-13.02619 -12.43651,-17.61585 -8.77484,-12.01554 1.92404,2.28486 3.96182,4.49073 6.08842,6.58997 5.43326,5.46916 10.10854,11.84899 13.76373,18.62193 0.98323,1.91127 -0.19758,-0.4352 0.73294,1.58559 0.71136,1.54483 0.69952,1.48912 -1.17423,2.52024 -0.16311,0.0306 -0.33045,0.13965 -0.48932,0.0917 -0.0214,-0.007 -0.89324,-1.65326 -1.70655,-1.26343 -0.91573,-0.64631 -1.77384,-1.2294 -2.91312,-1.40218 -1.77386,0.31144 -3.51599,0.7771 -5.28937,1.09323 -2.93542,0.53719 -5.99669,0.92299 -8.95718,0.36122 -2.72185,-0.82372 1.19794,0.31907 -1.64322,-0.36199 -1.28832,-0.30882 -2.25172,-1.34579 -3.37229,-1.98694 -0.29853,-0.26232 -0.57828,-0.54769 -0.89559,-0.78697 -0.67613,-0.50987 -2.94255,-1.54003 -1.6933,-2.53827 0.14036,-0.0523 0.53578,0.10888 0.44919,-0.0134 -3.25881,-4.6003 -6.59428,-9.14581 -9.89142,-13.71872 0.5824,1.06142 0.22912,0.58993 1.33602,1.61532 0.43603,0.40394 0.88003,0.79917 1.32005,1.19875 4.49417,3.88674 9.24707,7.37485 14.54174,10.11323 5.48714,3.29169 23.25368,10.77526 14.99179,18.22453 -1.26602,0.89259 -2.62743,1.2871 -4.18812,1.13115 -2.94292,-0.0185 -5.88343,-0.11032 -8.79883,-0.55772 -3.67793,-0.32704 -7.0402,-1.37617 -10.34643,-3.04131 -4.89217,-2.35407 -9.54459,-5.09859 -14.28125,-7.74639 -0.99333,-0.51979 -2.30508,-1.51104 -3.51368,-1.3274 -0.0717,0.0215 -0.28108,0.10335 -0.21163,0.0754 0.0955,-0.0385 0.18111,-0.12996 0.28382,-0.12213 0.092,0.007 0.27865,0.23588 0.22507,0.16083 -3.12235,-4.37288 -13.47495,-18.68824 -9.43847,-13.06732 1.79094,2.17137 4.4091,3.5467 6.31863,5.61955 3.60997,3.51248 6.97591,7.29967 10.93374,10.44533 8.66708,6.77577 9.81718,8.73902 17.31471,20.76819 -0.25741,0.3672 -0.45357,0.78608 -0.77225,1.10157 -1.41318,1.39902 -6.3259,-0.47309 -7.9793,-0.41877 -6.53139,-0.96035 -13.06389,-1.96635 -19.65454,-2.43729 -6.2044,-0.79861 -12.47739,-1.48938 -18.23169,-4.14485 -1.74176,-0.90443 -33.75066,-18.20679 -14.73902,-19.23761 1.14004,0.79592 2.05346,1.69162 2.84801,2.82389 2.14852,2.33175 4.18591,4.76127 6.81853,6.58937 3.27236,2.5738 6.7815,4.80601 10.13473,7.27014 5.74526,4.15478 8.66948,10.6757 12.92917,16.52819 0.25662,0.35259 0.8868,1.30446 0.87465,1.78914 -0.009,0.34011 -0.25542,0.63069 -0.38313,0.94604 -1.52892,1.56155 -3.72772,1.61082 -5.80866,1.68888 -2.89673,0.11802 -5.88366,0.26046 -8.54396,-1.09499 -4.7638,-2.44788 2.37723,1.18032 -3.31103,-1.54915 -3.35164,-1.60828 -6.42233,-3.75031 -9.73479,-5.4341 -4.48651,-2.74828 -8.70978,-5.83095 -12.76476,-9.18377 -0.73162,-0.55583 -3.17733,-1.7841 -1.29938,-2.71851 0.14943,-0.0743 -0.17713,0.62112 0.0318,0.49975 0.18102,0.52472 1.67238,2.70402 0.76532,1.46592 -9.15537,-12.49672 -12.40101,-17.64793 -8.61079,-11.70128 3.74986,4.20174 8.10058,7.77537 12.47474,11.29938 7.37794,6.22009 3.79727,2.17612 13.89608,17.68935 0.58728,0.90213 -1.04545,2.14342 -1.65317,2.39841 -3.13771,0.39971 -6.33326,-0.63893 -9.47661,-0.66611 -1.09614,-0.093 -2.20574,-0.0111 -3.29673,-0.15227 -1.10949,-0.14353 0.41564,-0.65009 0.28934,-0.84152 -10.47092,-15.87103 -10.77061,-19.35929 -10.09194,-13.24035 2.87037,0.83095 5.82325,0.46969 8.77701,0.58333 4.29013,0.18483 8.53525,0.73696 12.71888,1.72622 0.49434,0.17185 2.21338,0.3709 2.3147,0.50728 1.55943,2.09907 15.81304,12.52739 8.81199,15.70818 -4.13782,1.03227 -8.52828,0.40176 -12.74299,0.78159 -4.21626,0.0409 -8.43284,-0.0628 -12.64348,-0.27689 -0.72623,-0.0654 -1.4575,-0.0661 -2.18319,-0.13725 -0.64232,-0.063 -1.22077,-0.43479 -1.85864,-0.47414 -0.27124,-0.0168 -0.54181,0.0429 -0.81271,0.0644 -3.03777,0.27141 -6.07934,0.5018 -9.11124,0.83825 -2.73798,0.28828 -5.55827,0.78892 -8.30187,0.42489 -7.46098,-1.39028 -11.30194,-10.28793 -13.30752,-17.27564 -0.73018,-1.6496 -1.48807,-3.47638 -0.24176,-5.07098 1.39286,-1.09909 2.81143,-1.11452 4.46744,-0.57454 0.63923,0.30985 0.68378,0.23214 1.0991,0.79717 3.55698,4.83907 6.86418,9.86759 10.61302,14.55959 3.49832,4.37845 -6.55916,-9.08923 -9.86064,-13.61793 -0.11009,-0.15107 0.19006,0.32198 0.28509,0.48298 3.52235,4.8153 7.04471,9.63061 10.56706,14.44593 -20.42076,-27.85243 -12.75091,-15.70344 -8.34506,-11.92234 2.06815,1.01781 4.91877,0.53518 7.10958,0.26768 6.3754,-1.19471 0.33778,-0.25883 10.26432,14.56339 0.0758,0.11324 0.005,-0.29943 -0.0872,-0.39943 -0.61978,-0.66924 -1.90523,-0.73816 -2.65123,-1.12989 -4.21961,-0.72571 -8.55877,-1.15108 -12.51121,-2.90129 -3.35876,-1.4662 -6.63485,-3.18148 -10.13395,-4.27011 -1.25709,-0.16318 -1.25838,1.33305 -0.97193,2.1906 2.85654,5.45864 0.17908,0.26526 -9.1459,-12.43629 -0.24274,-0.33063 0.40398,0.71619 0.64616,1.04724 1.12299,1.53501 2.54117,2.8563 3.91599,4.15455 4.0805,3.81631 8.14648,7.69562 12.82939,10.78007 0.85602,0.64155 1.66112,1.35568 2.56124,1.93372 0.20744,0.13321 0.54283,0.0972 0.6731,0.30653 3.14892,5.0597 6.06441,10.261 9.09661,15.3915 -0.39892,-0.54537 -0.11898,-0.2905 -0.95205,-0.61947 -3.57752,-1.01907 -7.50828,-0.81905 -11.08053,-1.97861 -6.63828,-1.3973 -13.31879,-2.71715 -19.75469,-4.90172 -5.23987,-1.94233 -10.17089,-4.62554 -15.50582,-6.29588 -1.23478,-0.31628 -4.67254,-1.1093 -3.82051,-0.16128 0.21017,0.52595 1.62599,2.57918 0.91457,1.60695 -17.24792,-23.57121 -11.75838,-15.40983 -7.58651,-10.7782 4.50836,4.61674 9.79625,8.2265 15.703,10.86368 5.51933,2.23939 11.48682,4.29175 17.54107,3.63077 0.19988,-0.096 0.77442,-0.23297 0.57622,-0.33241 -0.27839,-0.13967 -0.33942,-0.0817 -0.49493,-0.43212 3.41283,4.5697 6.82565,9.1394 10.23848,13.70911 -0.93491,-0.88743 -2.37826,-1.09669 -3.54464,-1.49296 -4.99622,-0.8309 -9.99666,-1.64047 -15.00676,-2.38238 -2.96888,-0.51679 -6.07402,-0.85495 -8.75415,-2.31955 -1.46047,-1.18088 -3.31382,-1.61893 -5.00558,-2.39036 -0.7086,-0.20258 -2.26262,-0.55159 -2.84757,-0.97967 -0.12271,-0.0898 -0.16016,-0.27715 -0.29451,-0.34833 -0.16904,-0.0896 -0.37597,-0.071 -0.56395,-0.10651 -0.48582,-0.0807 -2.10945,-0.71998 -2.10189,0.20119 0.10489,1.08767 0.86691,2.00105 1.22178,3.01557 -0.0708,0.81952 0.0359,1.48863 0.4868,2.18152 2.70568,5.02095 8.32936,11.40408 -8.85159,-11.99504 -0.26053,-0.35483 0.43337,0.76892 0.69499,1.12294 0.64039,0.86657 1.58125,1.76969 2.32038,2.52653 3.46962,2.77999 7.37112,4.81463 11.45979,6.54142 0.47952,0.22064 0.95476,0.45082 1.43855,0.66195 0.33629,0.14674 0.79545,0.12196 1.02099,0.41137 2.95356,3.79008 12.71744,9.87602 10.34362,16.24754 -0.48874,1.12457 -1.2181,2.14629 -2.06577,3.02939 -1.311,1.05548 -2.68974,1.32766 -4.33759,0.89247 -2.32011,-0.65092 -4.42201,-1.68436 -6.6262,-2.6448 -2.88626,-0.9861 -5.71825,-2.12784 -8.59202,-3.14994 -2.9169,-0.9523 -5.50442,-2.22839 -7.91076,-4.16688 -2.69417,-2.1254 -5.40225,-4.31765 -7.85102,-6.69219 0.30499,-0.31274 0.58575,-0.65109 0.91495,-0.93823 0.0921,-0.0804 0.40353,-0.0502 0.33406,-0.15115 -16.85066,-24.41302 -12.36255,-15.67944 -7.63636,-11.11003 1.26352,1.24688 2.46609,2.55025 3.73342,3.77557 0.44805,0.54356 0.93468,0.89232 1.4153,1.3767 0.73676,0.74249 1.13293,1.8376 1.93144,2.53575 2.61065,2.61595 5.06203,5.39575 7.52907,8.14242 1.36035,1.51576 2.9286,3.03312 4.13647,4.67307 3.70639,5.03226 7.41046,10.06837 10.96866,15.20649 2.9806,4.30406 -6.16349,-8.46451 -9.23552,-12.70381 -0.2866,-0.39549 0.58607,0.78148 0.87911,1.17222 5.24627,5.88145 10.7359,12.01264 13.46931,19.45845 0.3536,1.90829 0.3243,4.36742 -2.39574,3.92359 -4.6836,-1.72153 -9.0781,-4.21256 -13.68379,-6.13098 -4.42391,-2.2795 -8.92981,-4.40056 -13.3182,-6.749 0,0 -8.58437,-15.20116 -8.58437,-15.20116 z" />
    </g>
  </g>
</svg>
