<?xml version="1.0" encoding="UTF-8" standalone="no"?>
<svg
   xmlns:dc="http://purl.org/dc/elements/1.1/"
   xmlns:cc="http://creativecommons.org/ns#"
   xmlns:rdf="http://www.w3.org/1999/02/22-rdf-syntax-ns#"
   xmlns:svg="http://www.w3.org/2000/svg"
   xmlns="http://www.w3.org/2000/svg"
   xmlns:sodipodi="http://sodipodi.sourceforge.net/DTD/sodipodi-0.dtd"
   xmlns:inkscape="http://www.inkscape.org/namespaces/inkscape"
   viewBox="0 -256 80 28"
   id="svg3025"
   version="1.1"
   inkscape:version="0.47 r22583"
   width="100%"
   height="100%"
   sodipodi:docname="icon_menu.svg"
   inkscape:export-filename="/home/caiosba/Trabalhos/Meedan/slack-chrome-extension-drawing/src/icon_menu.png"
   inkscape:export-xdpi="90"
   inkscape:export-ydpi="90">
  <metadata
     id="metadata3035">
    <rdf:RDF>
      <cc:Work
         rdf:about="">
        <dc:format>image/svg+xml</dc:format>
        <dc:type
           rdf:resource="http://purl.org/dc/dcmitype/StillImage" />
        <dc:title></dc:title>
      </cc:Work>
    </rdf:RDF>
  </metadata>
  <defs
     id="defs3033">
    <inkscape:perspective
       sodipodi:type="inkscape:persp3d"
       inkscape:vp_x="0 : 925 : 1"
       inkscape:vp_y="0 : 1000 : 0"
       inkscape:vp_z="1850 : 925 : 1"
       inkscape:persp3d-origin="925 : 616.66667 : 1"
       id="perspective8" />
    <inkscape:perspective
       id="perspective2865"
       inkscape:persp3d-origin="0.5 : 0.33333333 : 1"
       inkscape:vp_z="1 : 0.5 : 1"
       inkscape:vp_y="0 : 1000 : 0"
       inkscape:vp_x="0 : 0.5 : 1"
       sodipodi:type="inkscape:persp3d" />
    <linearGradient
       id="linearGradient2526">
      <stop
         style="stop-color:#e7ebeb;stop-opacity:1.0000000;"
         offset="0.0000000"
         id="stop2528" />
      <stop
         id="stop2534"
         offset="0.50000000"
         style="stop-color:#e6ebeb;stop-opacity:1.0000000;" />
      <stop
         style="stop-color:#ffffff;stop-opacity:1.0000000;"
         offset="1.0000000"
         id="stop2530" />
    </linearGradient>
    <inkscape:perspective
       id="perspective3213"
       inkscape:persp3d-origin="0.5 : 0.33333333 : 1"
       inkscape:vp_z="1 : 0.5 : 1"
       inkscape:vp_y="0 : 1000 : 0"
       inkscape:vp_x="0 : 0.5 : 1"
       sodipodi:type="inkscape:persp3d" />
  </defs>
  <sodipodi:namedview
     pagecolor="#ffffff"
     bordercolor="#666666"
     borderopacity="1"
     objecttolerance="10"
     gridtolerance="10"
     guidetolerance="10"
     inkscape:pageopacity="0"
     inkscape:pageshadow="2"
     inkscape:window-width="1920"
     inkscape:window-height="1031"
     id="namedview3031"
     showgrid="false"
     inkscape:zoom="5.9286722"
     inkscape:cx="57.68677"
     inkscape:cy="-3.5279334"
     inkscape:window-x="0"
     inkscape:window-y="0"
     inkscape:window-maximized="1"
     inkscape:current-layer="g3027" />
  <g
     transform="matrix(1,0,0,-1,-396.29134,783.5517)"
     id="g3027"
     style="fill:#3eb891;fill-opacity:1;stroke:#3eb891;stroke-opacity:1">
    <path
       d="m 457.29818,1018.7541 2.24008,2.2401 -2.93528,2.9353 -2.24008,-2.2401 v -1.0814 h 1.85386 v -1.8539 h 1.08142 z m 8.49689,13.9041 q -0.30899,0.309 -0.63727,-0.02 l -6.75888,-6.7588 q -0.3283,-0.3283 -0.0193,-0.6374 0.30899,-0.309 0.63727,0.019 l 6.75889,6.7589 q 0.32828,0.3283 0.0193,0.6372 z m 1.54489,-11.4709 v -3.6691 q 0,-2.298 -1.63179,-3.9298 -1.63179,-1.6318 -3.92981,-1.6318 h -16.06684 q -2.29803,0 -3.92981,1.6318 -1.63179,1.6318 -1.63179,3.9298 v 16.0669 q 0,2.298 1.63179,3.9299 1.63178,1.6318 3.92981,1.6318 h 16.06684 q 1.2166,0 2.2594,-0.4828 0.28966,-0.1352 0.3476,-0.4442 0.0579,-0.3283 -0.1738,-0.56 l -0.94624,-0.9462 q -0.27036,-0.2704 -0.61796,-0.1545 -0.44416,0.1159 -0.869,0.1159 h -16.06684 q -1.27454,0 -2.18216,-0.9077 -0.90762,-0.9076 -0.90762,-2.1821 v -16.0669 q 0,-1.2745 0.90762,-2.1821 0.90762,-0.9077 2.18216,-0.9077 h 16.06684 q 1.27453,0 2.18215,0.9077 0.90762,0.9076 0.90762,2.1821 v 2.4332 q 0,0.2511 0.17379,0.4249 l 1.23592,1.2359 q 0.28968,0.2896 0.67589,0.1351 0.38623,-0.1544 0.38623,-0.56 z m -1.85388,14.2517 5.5616,-5.5616 -12.97706,-12.9771 h -5.5616 v 5.5616 z m 8.57414,-2.549 -1.77662,-1.7767 -5.5616,5.5617 1.77663,1.7766 q 0.54071,0.5407 1.31315,0.5407 0.77244,0 1.31315,-0.5407 l 2.93529,-2.9353 q 0.54071,-0.5408 0.54071,-1.3133 0,-0.7724 -0.54071,-1.3131 z"
       id="path3029"
       inkscape:connector-curvature="0"
       style="fill:#3eb891;fill-opacity:1;stroke:none" />
    <path
       style="fill:#babbbf;fill-opacity:1;stroke:none"
       inkscape:connector-curvature="0"
       id="path3219"
       d="m 415.13001,1018.7541 2.24008,2.2401 -2.93528,2.9353 -2.24008,-2.2401 v -1.0814 h 1.85386 v -1.8539 h 1.08142 z m 8.49689,13.9041 q -0.30899,0.309 -0.63727,-0.02 l -6.75888,-6.7588 q -0.3283,-0.3283 -0.0193,-0.6374 0.30898,-0.309 0.63726,0.019 l 6.75889,6.7589 q 0.32829,0.3283 0.0193,0.6372 z m 1.54489,-11.4709 v -3.6691 q 0,-2.298 -1.63179,-3.9298 -1.63179,-1.6318 -3.92981,-1.6318 h -16.06684 q -2.29802,0 -3.92981,1.6318 -1.63179,1.6318 -1.63179,3.9298 v 16.0669 q 0,2.298 1.63179,3.9299 1.63179,1.6318 3.92981,1.6318 h 16.06684 q 1.2166,0 2.2594,-0.4828 0.28966,-0.1352 0.3476,-0.4442 0.0579,-0.3283 -0.1738,-0.56 l -0.94624,-0.9462 q -0.27036,-0.2704 -0.61796,-0.1545 -0.44416,0.1159 -0.869,0.1159 h -16.06684 q -1.27454,0 -2.18216,-0.9077 -0.90762,-0.9076 -0.90762,-2.1821 v -16.0669 q 0,-1.2745 0.90762,-2.1821 0.90762,-0.9077 2.18216,-0.9077 h 16.06684 q 1.27453,0 2.18215,0.9077 0.90762,0.9076 0.90762,2.1821 v 2.4332 q 0,0.2511 0.1738,0.4249 l 1.23591,1.2359 q 0.28968,0.2896 0.67589,0.1351 0.38623,-0.1544 0.38623,-0.56 z m -1.85388,14.2517 5.5616,-5.5616 -12.97706,-12.9771 h -5.5616 v 5.5616 z m 8.57414,-2.549 -1.77662,-1.7767 -5.5616,5.5617 1.77663,1.7766 q 0.54071,0.5407 1.31315,0.5407 0.77244,0 1.31315,-0.5407 l 2.93529,-2.9353 q 0.54071,-0.5408 0.54071,-1.3133 0,-0.7724 -0.54071,-1.3131 z" />
  </g>
</svg>
